<svg width="125" height="41" viewBox="0 0 125 41" fill="none" xmlns="http://www.w3.org/2000/svg">
<path d="M36.06 34.33C34.8286 36.3149 33.0685 37.9175 30.9772 38.9578C28.8858 39.9982 26.5459 40.4353 24.22 40.22C21.2687 40.1111 18.3786 39.3459 15.76 37.9801C14.7083 37.6201 13.7246 37.086 12.85 36.4C10.5295 34.6576 8.05221 33.1344 5.45001 31.85V31.85C3.68969 31.0549 1.86685 30.406 0 29.91L0.48999 29.38C2.70999 25.73 8.77999 24.09 12.49 25.18C16.2 26.27 19.63 28.09 23.11 28.37C26.59 28.65 28.54 28.69 28.54 28.69C25.67 34.1 15.45 31.1 15.45 31.1C16.7178 32.4573 18.1765 33.6229 19.78 34.56C28.43 39.48 34.43 30.83 34.43 30.83L36.96 27.27C37.3566 26.8829 37.8 26.547 38.28 26.27C39.89 25.41 40.7 26.18 40.7 26.18C40.7 26.18 37.7 31.72 36.06 34.33ZM38.06 14.93C38.37 15.15 38.68 15.4 38.99 15.67C32.07 11.43 25.56 17.67 25.56 17.67L22.37 20.67C20.37 21.85 19.28 21.52 18.8 21.22C19.8077 21.253 20.7972 20.9466 21.61 20.35L24.73 17.29C24.73 17.29 31.09 10.91 38.11 14.99L38.06 14.93ZM24.66 16.85L21.54 19.9C20.7299 20.503 19.7393 20.8133 18.73 20.78C18.3466 20.7417 17.9907 20.5638 17.73 20.28L18.42 19.4C18.9371 19.2286 19.4309 18.9934 19.89 18.7L23 15.64C23 15.64 30.41 8.21002 38 14.51C30.94 10.47 24.61 16.85 24.61 16.85H24.66ZM34.81 25.58L32.28 29.14C32.28 29.14 27.14 36.54 19.52 33.76H19.57C19.23 33.59 18.88 33.41 18.57 33.2C26.12 36.2 31.43 28.87 31.43 28.87L34.04 25.37C35.8 23.85 36.93 23.98 37.46 24.2C36.4247 24.3247 35.4675 24.8139 34.76 25.58H34.81ZM37.56 24.58C37.9628 24.5304 38.3689 24.6418 38.69 24.89L38.16 25.89C37.6846 26.1543 37.2416 26.4732 36.84 26.84L34.31 30.41C34.31 30.41 28.31 39.0201 19.71 34.1701H19.66C27.28 36.9501 32.42 29.55 32.42 29.55L34.95 25.99C35.6276 25.2618 36.5282 24.7798 37.51 24.62L37.56 24.58ZM43.49 24.58C40.03 22.85 36.97 20.46 33.59 19.58C30.21 18.7 28.31 18.31 28.31 18.31C32.09 13.49 41.62 18.25 41.62 18.25C40.6125 16.69 39.383 15.2852 37.97 14.08C30.32 7.71003 22.89 15.16 22.89 15.16L19.72 18.33C19.2633 18.6238 18.7731 18.8621 18.26 19.04C16.52 19.6 15.85 18.71 15.85 18.71C15.85 18.71 19.75 13.8 21.85 11.52C23.4152 9.78575 25.432 8.52115 27.6749 7.86772C29.9178 7.21428 32.2983 7.19775 34.55 7.82002C37.4365 8.44552 40.1462 9.70983 42.48 11.52C43.4566 12.0549 44.333 12.7553 45.07 13.59C47.0479 15.7116 49.2171 17.6464 51.55 19.37C53.1353 20.462 54.8076 21.4218 56.55 22.24L55.98 22.67C53.17 25.85 46.94 26.4 43.44 24.66L43.49 24.58Z" fill="url(#paint0_linear)"/>
<path d="M64.042 16.256H68.298V33.376C68.298 34.144 68.1807 34.8373 67.946 35.456C67.7327 36.096 67.4127 36.64 66.986 37.088C66.5594 37.5573 66.0367 37.92 65.418 38.176C64.8207 38.432 64.138 38.56 63.37 38.56C62.7514 38.56 62.218 38.5067 61.77 38.4C61.3434 38.3147 61.0767 38.2507 60.97 38.208V34.656C61.1194 34.6987 61.3007 34.7307 61.514 34.752C61.7274 34.7947 61.9834 34.816 62.282 34.816C62.922 34.816 63.37 34.6453 63.626 34.304C63.9034 33.984 64.042 33.536 64.042 32.96V16.256ZM63.53 11.072C63.53 10.3253 63.786 9.696 64.298 9.184C64.81 8.672 65.4287 8.416 66.154 8.416C66.9007 8.416 67.5194 8.672 68.01 9.184C68.522 9.696 68.778 10.3253 68.778 11.072C68.778 11.7973 68.522 12.416 68.01 12.928C67.5194 13.4187 66.9007 13.664 66.154 13.664C65.4287 13.664 64.81 13.4187 64.298 12.928C63.786 12.416 63.53 11.7973 63.53 11.072ZM83.1585 32C83.1159 31.8293 83.0839 31.584 83.0625 31.264C83.0412 30.944 83.0305 30.624 83.0305 30.304C82.6039 31.0507 81.9745 31.5947 81.1425 31.936C80.3319 32.256 79.5105 32.416 78.6785 32.416C77.7185 32.416 76.8652 32.256 76.1185 31.936C75.3932 31.5947 74.7745 31.1467 74.2625 30.592C73.7505 30.0373 73.3559 29.3867 73.0785 28.64C72.8225 27.872 72.6945 27.0613 72.6945 26.208V16.256H76.9505V25.344C76.9505 26.24 77.1745 26.9973 77.6225 27.616C78.0919 28.2133 78.8279 28.512 79.8305 28.512C80.7905 28.512 81.5265 28.224 82.0385 27.648C82.5505 27.072 82.8065 26.3253 82.8065 25.408V16.256H87.0625V29.152C87.0625 29.7707 87.0732 30.336 87.0945 30.848C87.1372 31.3387 87.1799 31.7227 87.2225 32H83.1585ZM91.6045 32V8.832H95.8605V32H91.6045ZM100.417 32V16.256H104.673V32H100.417ZM99.905 11.104C99.905 10.3573 100.161 9.728 100.673 9.216C101.185 8.704 101.804 8.448 102.529 8.448C103.276 8.448 103.894 8.704 104.385 9.216C104.897 9.728 105.153 10.3573 105.153 11.104C105.153 11.808 104.897 12.416 104.385 12.928C103.894 13.44 103.276 13.696 102.529 13.696C101.804 13.696 101.185 13.44 100.673 12.928C100.161 12.416 99.905 11.808 99.905 11.104ZM108.27 27.712C108.27 27.008 108.387 26.3893 108.622 25.856C108.878 25.3013 109.219 24.8213 109.646 24.416C110.072 24.0107 110.563 23.6907 111.118 23.456C111.694 23.2213 112.312 23.0507 112.974 22.944L116.846 22.368C117.294 22.304 117.603 22.176 117.774 21.984C117.944 21.7707 118.03 21.5253 118.03 21.248C118.03 20.6933 117.806 20.2133 117.358 19.808C116.931 19.4027 116.27 19.2 115.374 19.2C114.435 19.2 113.71 19.456 113.198 19.968C112.707 20.48 112.43 21.0773 112.366 21.76L108.59 20.96C108.654 20.3413 108.846 19.7227 109.166 19.104C109.486 18.4853 109.923 17.9307 110.478 17.44C111.032 16.9493 111.715 16.5547 112.526 16.256C113.336 15.936 114.275 15.776 115.342 15.776C116.579 15.776 117.635 15.9467 118.51 16.288C119.384 16.608 120.088 17.0453 120.622 17.6C121.176 18.1333 121.571 18.7627 121.806 19.488C122.062 20.2133 122.19 20.9707 122.19 21.76V29.504C122.19 29.9307 122.211 30.3893 122.254 30.88C122.296 31.3493 122.339 31.7227 122.382 32H118.478C118.435 31.7867 118.392 31.4987 118.35 31.136C118.328 30.752 118.318 30.4107 118.318 30.112C117.912 30.7307 117.326 31.2747 116.558 31.744C115.811 32.2133 114.851 32.448 113.678 32.448C112.846 32.448 112.088 32.3093 111.406 32.032C110.744 31.776 110.179 31.4347 109.71 31.008C109.24 30.56 108.878 30.0587 108.622 29.504C108.387 28.928 108.27 28.3307 108.27 27.712ZM114.574 29.28C115.022 29.28 115.448 29.2267 115.854 29.12C116.28 28.992 116.654 28.7893 116.974 28.512C117.294 28.2133 117.55 27.84 117.742 27.392C117.934 26.9227 118.03 26.336 118.03 25.632V24.928L114.478 25.472C113.923 25.5573 113.454 25.76 113.07 26.08C112.707 26.3787 112.526 26.8373 112.526 27.456C112.526 27.9253 112.696 28.352 113.038 28.736C113.379 29.0987 113.891 29.28 114.574 29.28Z" fill="white"/>
<defs>
<linearGradient id="paint0_linear" x1="-0.04" y1="23.79" x2="56.57" y2="23.79" gradientUnits="userSpaceOnUse">
<stop stop-color="#3093D5"/>
<stop offset="1" stop-color="#B0DAFE"/>
</linearGradient>
</defs>
</svg>
