<svg width="35" height="35" viewBox="0 0 35 35" fill="none" xmlns="http://www.w3.org/2000/svg">
<path d="M17.5 35C12.8256 35 8.43097 33.1797 5.12559 29.8744C1.82034 26.569 0 22.1744 0 17.5C0 12.8256 1.82034 8.43097 5.12559 5.12559C8.43097 1.82034 12.8256 0 17.5 0C22.1744 0 26.569 1.82034 29.8744 5.12559C33.1797 8.43097 35 12.8256 35 17.5C35 22.1744 33.1797 26.569 29.8744 29.8744C26.569 33.1797 22.1744 35 17.5 35V35ZM17.5 2.73438C9.35819 2.73438 2.73438 9.35819 2.73438 17.5C2.73438 25.6418 9.35819 32.2656 17.5 32.2656C25.6418 32.2656 32.2656 25.6418 32.2656 17.5C32.2656 9.35819 25.6418 2.73438 17.5 2.73438ZM23.9078 20.5851C23.2708 20.1796 22.4257 20.3674 22.0204 21.0045C22.0035 21.031 20.3021 23.6525 17.4316 23.6525C14.5612 23.6525 12.8598 21.031 12.8429 21.0045C12.4375 20.3675 11.5925 20.1797 10.9555 20.5851C10.3184 20.9904 10.1307 21.8355 10.536 22.4725C10.6377 22.6323 13.0771 26.3869 17.4316 26.3869C21.7862 26.3869 24.2255 22.6324 24.3273 22.4725C24.7326 21.8354 24.5448 20.9904 23.9078 20.5851V20.5851ZM11.4844 11.2793C12.4282 11.2793 13.1934 12.0444 13.1934 12.9883C13.1934 13.9321 12.4282 14.6973 11.4844 14.6973C10.5405 14.6973 9.77539 13.9321 9.77539 12.9883C9.77539 12.0444 10.5405 11.2793 11.4844 11.2793ZM27.6067 15.3264C28.0674 14.7282 27.9559 13.8698 27.3576 13.409C25.9591 12.332 24.525 11.8005 23.0918 11.8271L21.3972 11.8262C21.397 11.8262 21.3968 11.8262 21.3965 11.8262C20.6417 11.8262 20.0297 12.4378 20.0293 13.1926C20.0289 13.9476 20.6406 14.5601 21.3957 14.5605C21.3957 14.5605 23.1253 14.5614 23.1356 14.5612C23.9317 14.5433 24.7925 14.8848 25.6892 15.5754C25.9379 15.7668 26.2312 15.8595 26.5225 15.8594C26.9321 15.8594 27.3374 15.6761 27.6067 15.3264V15.3264Z" fill="#3093D5" fill-opacity="0.78"/>
</svg>
