<svg width="1152" height="701" viewBox="0 0 1152 701" fill="none" xmlns="http://www.w3.org/2000/svg">
<rect width="1152" height="701" fill="url(#paint0_linear)"/>
<path d="M802.838 618.054L929.758 691.294L1119.47 582.404L992.388 509.034L802.838 618.054Z" fill="#3093D5" fill-opacity="0.65"/>
<path opacity="0.32" d="M977.448 553.124L948.298 537.004L905.968 562.374C915.238 567.234 924.228 572.324 934.498 578.434C948.838 570.034 963.378 561.964 977.448 553.124Z" fill="url(#paint1_linear)"/>
<path opacity="0.32" d="M998.478 578.144C987.588 585.024 976.328 591.294 965.198 597.794C970.248 600.794 975.728 604.174 981.938 608.014C993.528 601.774 1006.67 594.464 1015.13 585.534L998.478 578.144Z" fill="url(#paint2_linear)"/>
<path opacity="0.32" d="M894.398 669.824C909.398 661.754 923.608 652.054 938.478 643.824L884.578 614.024L842.248 639.364C857.918 647.574 872.728 656.414 894.398 669.824Z" fill="url(#paint3_linear)"/>
<path d="M904.198 624.514L867.308 603.444L958.058 550.384L1040.17 595.364L947.278 649.934L904.198 624.514Z" stroke="#F2F2F2" stroke-miterlimit="10"/>
<path d="M863.778 626.544L863.768 628.174L864.588 629.184" fill="#ADCEE1"/>
<path d="M896.468 606.924L864.708 626.434C864.425 626.618 864.194 626.871 864.036 627.169C863.877 627.467 863.797 627.8 863.802 628.138C863.807 628.475 863.897 628.805 864.064 629.099C864.231 629.392 864.47 629.638 864.758 629.814L912.758 657.204C913.427 657.59 914.185 657.793 914.958 657.793C915.73 657.793 916.489 657.59 917.158 657.204L948.768 638.794C951.068 636.924 950.908 633.374 948.768 633.214L901.078 606.884C900.378 606.471 899.579 606.257 898.767 606.264C897.955 606.271 897.16 606.499 896.468 606.924V606.924Z" fill="#88D3D8"/>
<path d="M896.478 605.574L864.718 625.084C864.435 625.268 864.204 625.521 864.046 625.819C863.887 626.117 863.807 626.45 863.812 626.788C863.817 627.125 863.907 627.456 864.074 627.749C864.241 628.042 864.48 628.288 864.768 628.464L912.768 655.854C913.437 656.24 914.195 656.443 914.968 656.443C915.74 656.443 916.499 656.24 917.168 655.854L948.778 637.444C949.147 637.229 949.454 636.921 949.667 636.551C949.88 636.181 949.992 635.761 949.992 635.334C949.992 634.907 949.88 634.487 949.667 634.117C949.454 633.746 949.147 633.438 948.778 633.224L901.088 605.544C900.389 605.13 899.591 604.913 898.778 604.919C897.966 604.924 897.171 605.15 896.478 605.574V605.574Z" fill="white"/>
<path d="M897.778 602.894C897.778 602.894 911.108 560.484 911.028 560.484C910.948 560.484 911.448 558.594 913.798 559.674L964.168 589.604C964.168 589.604 966.608 590.604 966.168 592.884C965.728 595.164 953.168 634.384 953.168 634.384C952.908 634.756 952.536 635.035 952.106 635.181C951.676 635.327 951.211 635.331 950.778 635.194C949.158 634.704 898.968 605.294 898.968 605.294C898.497 605.126 898.111 604.781 897.889 604.334C897.667 603.886 897.627 603.37 897.778 602.894V602.894Z" fill="#053855"/>
<path d="M911.848 563.574L963.438 593.924L952.558 629.884L900.308 600.424L911.848 563.574Z" fill="#E9F2F4"/>
<path d="M894.508 610.064L882.898 617.234C882.691 617.358 882.519 617.534 882.4 617.744C882.281 617.955 882.219 618.192 882.219 618.434C882.219 618.675 882.281 618.913 882.4 619.123C882.519 619.333 882.691 619.509 882.898 619.634L924.378 643.504C924.999 643.863 925.705 644.052 926.423 644.052C927.141 644.052 927.846 643.863 928.468 643.504C931.148 641.954 935.758 639.174 938.588 637.504C938.84 637.353 939.05 637.139 939.195 636.883C939.34 636.627 939.417 636.338 939.417 636.044C939.417 635.75 939.34 635.46 939.195 635.204C939.05 634.948 938.84 634.735 938.588 634.584L896.838 610.084C896.488 609.869 896.086 609.754 895.675 609.75C895.265 609.747 894.861 609.855 894.508 610.064V610.064Z" fill="#3093D5"/>
<path d="M895.058 629.654L909.548 637.884C909.77 638.01 909.955 638.194 910.084 638.415C910.212 638.636 910.28 638.888 910.28 639.144C910.28 639.4 910.212 639.651 910.084 639.872C909.955 640.094 909.77 640.277 909.548 640.404L900.988 645.404C900.694 645.573 900.361 645.662 900.023 645.662C899.684 645.662 899.351 645.573 899.058 645.404L884.228 636.874C884.04 636.769 883.884 636.615 883.776 636.43C883.667 636.245 883.61 636.034 883.61 635.819C883.61 635.604 883.667 635.393 883.776 635.208C883.884 635.022 884.04 634.869 884.228 634.764L893.138 629.694C893.426 629.52 893.755 629.425 894.092 629.418C894.429 629.411 894.762 629.492 895.058 629.654V629.654Z" fill="#3093D5"/>
<path opacity="0.1" d="M894.508 610.064L882.898 617.234C882.691 617.358 882.519 617.534 882.4 617.744C882.281 617.955 882.219 618.192 882.219 618.434C882.219 618.675 882.281 618.913 882.4 619.123C882.519 619.333 882.691 619.509 882.898 619.634L924.378 643.504C924.999 643.863 925.705 644.052 926.423 644.052C927.141 644.052 927.846 643.863 928.468 643.504C931.148 641.954 935.758 639.174 938.588 637.504C938.84 637.353 939.05 637.139 939.195 636.883C939.34 636.627 939.417 636.338 939.417 636.044C939.417 635.75 939.34 635.46 939.195 635.204C939.05 634.948 938.84 634.735 938.588 634.584L896.838 610.084C896.488 609.869 896.086 609.754 895.675 609.75C895.265 609.747 894.861 609.855 894.508 610.064Z" fill="#053855"/>
<path opacity="0.1" d="M895.058 629.654L909.548 637.884C909.77 638.01 909.955 638.194 910.084 638.415C910.212 638.636 910.28 638.888 910.28 639.144C910.28 639.4 910.212 639.651 910.084 639.872C909.955 640.094 909.77 640.277 909.548 640.404L900.988 645.404C900.694 645.573 900.361 645.662 900.023 645.662C899.684 645.662 899.351 645.573 899.058 645.404L884.228 636.874C884.04 636.769 883.884 636.615 883.776 636.43C883.667 636.245 883.61 636.034 883.61 635.819C883.61 635.604 883.667 635.393 883.776 635.208C883.884 635.022 884.04 634.869 884.228 634.764L893.138 629.694C893.426 629.52 893.755 629.425 894.092 629.418C894.429 629.411 894.762 629.492 895.058 629.654V629.654Z" fill="#053855"/>
<path d="M991.708 502.634V545.594L958.428 564.804L931.338 548.694V508.774" fill="#55D5D8"/>
<path d="M958.428 564.804V522.414L931.338 506.544V548.694L958.428 564.804Z" fill="#42BCC5"/>
<path d="M964.308 486.404L991.708 502.634L958.428 522.414L931.338 506.544L964.308 486.404Z" fill="#5D5BC4"/>
<path d="M987.368 509.694V518.594L962.438 532.814V524.094L987.368 509.694Z" fill="#7374B7"/>
<path d="M965.898 527.158C966.07 526.598 965.923 526.057 965.569 525.948C965.215 525.839 964.789 526.205 964.617 526.765C964.446 527.325 964.593 527.866 964.947 527.975C965.301 528.083 965.727 527.718 965.898 527.158Z" fill="#F7931E"/>
<path d="M968.025 525.917C968.197 525.358 968.049 524.816 967.695 524.708C967.342 524.599 966.916 524.965 966.744 525.524C966.572 526.084 966.72 526.626 967.073 526.734C967.427 526.843 967.853 526.477 968.025 525.917Z" fill="#D9E021"/>
<path d="M969.738 524.744L985.158 515.904" stroke="#F2F2F2" stroke-width="0.25" stroke-miterlimit="10"/>
<path d="M987.948 522.164V531.054L963.018 545.274V536.554L987.948 522.164Z" fill="#7374B7"/>
<path d="M966.49 539.632C966.661 539.072 966.514 538.53 966.16 538.422C965.806 538.313 965.38 538.679 965.209 539.239C965.037 539.798 965.184 540.34 965.538 540.449C965.892 540.557 966.318 540.192 966.49 539.632Z" fill="#F7931E"/>
<path d="M968.61 538.379C968.782 537.819 968.634 537.278 968.28 537.169C967.927 537.06 967.501 537.426 967.329 537.986C967.157 538.545 967.305 539.087 967.658 539.196C968.012 539.304 968.438 538.939 968.61 538.379Z" fill="#D9E021"/>
<path d="M970.328 537.214L985.738 528.364" stroke="#F2F2F2" stroke-width="0.25" stroke-miterlimit="10"/>
<path d="M987.948 534.604V543.504L963.018 557.724V549.004L987.948 534.604Z" fill="#7374B7"/>
<path d="M966.482 552.071C966.654 551.512 966.507 550.97 966.153 550.861C965.799 550.753 965.373 551.119 965.201 551.678C965.03 552.238 965.177 552.78 965.531 552.888C965.885 552.997 966.311 552.631 966.482 552.071Z" fill="#F7931E"/>
<path d="M968.602 550.818C968.774 550.259 968.626 549.717 968.273 549.608C967.919 549.5 967.493 549.866 967.321 550.425C967.149 550.985 967.297 551.527 967.651 551.635C968.005 551.744 968.431 551.378 968.602 550.818Z" fill="#D9E021"/>
<path d="M970.328 549.654L985.738 540.814" stroke="#F2F2F2" stroke-width="0.25" stroke-miterlimit="10"/>
<path d="M931.338 521.294L958.308 537.214L991.708 517.814" stroke="#1B1464" stroke-width="0.25" stroke-miterlimit="10"/>
<path d="M931.338 533.744L958.308 549.654L991.708 530.264" stroke="#1B1464" stroke-width="0.25" stroke-miterlimit="10"/>
<path d="M991.708 460.664V503.614L958.428 522.824L931.338 506.714V466.804" fill="#55D5D8"/>
<path d="M958.428 522.824V480.434L931.338 464.564V506.714L958.428 522.824Z" fill="#42BCC5"/>
<path d="M964.308 444.424L991.708 460.664L958.428 480.434L931.338 464.564L964.308 444.424Z" fill="#42BCC5"/>
<path d="M987.368 467.724V476.614L962.438 490.834V482.114L987.368 467.724Z" fill="#7374B7"/>
<path d="M965.895 485.195C966.067 484.635 965.919 484.094 965.565 483.985C965.212 483.877 964.786 484.242 964.614 484.802C964.442 485.362 964.59 485.903 964.943 486.012C965.297 486.12 965.723 485.755 965.895 485.195Z" fill="#F7931E"/>
<path d="M968.022 483.942C968.194 483.382 968.046 482.84 967.692 482.732C967.339 482.623 966.913 482.989 966.741 483.549C966.569 484.108 966.717 484.65 967.07 484.758C967.424 484.867 967.85 484.501 968.022 483.942Z" fill="#D9E021"/>
<path d="M969.738 482.774L985.158 473.924" stroke="#F2F2F2" stroke-width="0.25" stroke-miterlimit="10"/>
<path d="M987.948 480.184V489.084L963.018 503.304V494.584L987.948 480.184Z" fill="#7374B7"/>
<path d="M966.477 497.656C966.649 497.096 966.501 496.555 966.147 496.446C965.794 496.338 965.368 496.703 965.196 497.263C965.024 497.823 965.172 498.364 965.526 498.473C965.879 498.581 966.305 498.216 966.477 497.656Z" fill="#F7931E"/>
<path d="M968.616 496.406C968.788 495.846 968.641 495.305 968.287 495.196C967.933 495.088 967.507 495.453 967.335 496.013C967.164 496.573 967.311 497.114 967.665 497.223C968.019 497.331 968.445 496.966 968.616 496.406Z" fill="#D9E021"/>
<path d="M970.328 495.234L985.738 486.394" stroke="#F2F2F2" stroke-width="0.25" stroke-miterlimit="10"/>
<path d="M987.948 492.634V501.524L963.018 515.744V507.024L987.948 492.634Z" fill="#7374B7"/>
<path d="M966.479 510.109C966.651 509.549 966.503 509.007 966.15 508.899C965.796 508.79 965.37 509.156 965.198 509.715C965.026 510.275 965.174 510.817 965.528 510.925C965.881 511.034 966.307 510.668 966.479 510.109Z" fill="#F7931E"/>
<path d="M968.609 508.856C968.781 508.296 968.633 507.754 968.28 507.646C967.926 507.537 967.5 507.903 967.328 508.462C967.156 509.022 967.304 509.564 967.658 509.672C968.011 509.781 968.437 509.415 968.609 508.856Z" fill="#D9E021"/>
<path d="M970.328 507.684L985.738 498.834" stroke="#F2F2F2" stroke-width="0.25" stroke-miterlimit="10"/>
<path d="M931.338 479.324L958.308 495.234L991.708 475.844" stroke="#1B1464" stroke-width="0.25" stroke-miterlimit="10"/>
<path d="M931.338 491.774L958.308 507.684L991.708 488.284" stroke="#1B1464" stroke-width="0.25" stroke-miterlimit="10"/>
<path d="M986.228 630.354C989.039 630.354 991.318 629.217 991.318 627.814C991.318 626.411 989.039 625.274 986.228 625.274C983.417 625.274 981.138 626.411 981.138 627.814C981.138 629.217 983.417 630.354 986.228 630.354Z" fill="#BABABC"/>
<path d="M981.128 627.814V624.424H991.318V627.814" fill="#BABABC"/>
<path d="M986.228 626.964C989.039 626.964 991.318 625.827 991.318 624.424C991.318 623.021 989.039 621.884 986.228 621.884C983.417 621.884 981.138 623.021 981.138 624.424C981.138 625.827 983.417 626.964 986.228 626.964Z" fill="white"/>
<path d="M882.238 598.164C885.049 598.164 887.328 597.027 887.328 595.624C887.328 594.221 885.049 593.084 882.238 593.084C879.427 593.084 877.148 594.221 877.148 595.624C877.148 597.027 879.427 598.164 882.238 598.164Z" fill="#BABABC"/>
<path d="M877.138 595.624V592.224H887.328V595.624" fill="#BABABC"/>
<path d="M882.238 594.764C885.049 594.764 887.328 593.627 887.328 592.224C887.328 590.821 885.049 589.684 882.238 589.684C879.427 589.684 877.148 590.821 877.148 592.224C877.148 593.627 879.427 594.764 882.238 594.764Z" fill="white"/>
<path d="M866.838 603.504V554.694" stroke="#F2F2F2" stroke-miterlimit="10"/>
<path opacity="0.1" d="M910.608 509.994C909.698 508.834 896.968 501.294 896.968 501.294V501.364C894.358 498.474 889.518 499.484 883.228 504.964C883.228 504.964 883.008 498.964 875.808 497.964C868.608 496.964 866.538 500.294 866.538 500.294C866.538 500.294 864.108 488.894 849.668 493.174C836.548 497.064 838.408 510.294 838.408 510.294C838.408 510.294 830.258 508.294 823.738 517.224C819.784 522.943 817.689 529.741 817.738 536.694C817.738 536.694 804.028 541.694 802.288 554.124C802.126 555.174 802.019 556.232 801.968 557.294V557.614C801.919 560.299 802.16 562.981 802.688 565.614C802.813 566.378 803.106 567.105 803.547 567.742C803.988 568.378 804.566 568.909 805.238 569.294L819.778 577.594C820.227 573.979 819.717 570.309 818.298 566.954L890.298 525.174C890.298 525.174 895.808 520.334 898.118 513.914L903.658 512.484C903.658 512.484 911.518 511.144 910.608 509.994Z" fill="#053855"/>
<path opacity="0.1" d="M910.608 509.994C909.698 508.834 896.968 501.294 896.968 501.294V501.364C894.358 498.474 889.518 499.484 883.228 504.964C883.228 504.964 883.008 498.964 875.808 497.964C868.608 496.964 866.538 500.294 866.538 500.294C866.538 500.294 864.108 488.894 849.668 493.174C836.548 497.064 838.408 510.294 838.408 510.294C838.408 510.294 830.258 508.294 823.738 517.224C819.784 522.943 817.689 529.741 817.738 536.694C817.738 536.694 804.028 541.694 802.288 554.124C802.126 555.174 802.019 556.232 801.968 557.294V557.614C801.919 560.299 802.16 562.981 802.688 565.614C802.813 566.378 803.106 567.105 803.547 567.742C803.988 568.378 804.566 568.909 805.238 569.294L819.778 577.594C820.227 573.979 819.717 570.309 818.298 566.954L890.298 525.174C890.298 525.174 895.808 520.334 898.118 513.914L903.658 512.484C903.658 512.484 911.518 511.144 910.608 509.994Z" fill="#053855"/>
<path d="M910.608 509.994C909.698 508.834 896.968 501.294 896.968 501.294V501.364C894.358 498.474 889.518 499.484 883.228 504.964C883.228 504.964 883.008 498.964 875.808 497.964C868.608 496.964 866.538 500.294 866.538 500.294C866.538 500.294 864.108 488.894 849.668 493.174C836.548 497.064 838.408 510.294 838.408 510.294C838.408 510.294 830.258 508.294 823.738 517.224C819.784 522.943 817.689 529.741 817.738 536.694C817.738 536.694 804.028 541.694 802.288 554.124C802.126 555.174 802.019 556.232 801.968 557.294V557.614C801.919 560.299 802.16 562.981 802.688 565.614C802.813 566.378 803.106 567.105 803.547 567.742C803.988 568.378 804.566 568.909 805.238 569.294L819.778 577.594C820.227 573.979 819.717 570.309 818.298 566.954L890.298 525.174C890.298 525.174 895.808 520.334 898.118 513.914L903.658 512.484C903.658 512.484 911.518 511.144 910.608 509.994Z" fill="#3093D5"/>
<path opacity="0.23" d="M910.608 509.994C909.698 508.834 896.968 501.294 896.968 501.294V501.364C894.358 498.474 889.518 499.484 883.228 504.964C883.228 504.964 883.008 498.964 875.808 497.964C868.608 496.964 866.538 500.294 866.538 500.294C866.538 500.294 864.108 488.894 849.668 493.174C836.548 497.064 838.408 510.294 838.408 510.294C838.408 510.294 830.258 508.294 823.738 517.224C819.784 522.943 817.689 529.741 817.738 536.694C817.738 536.694 804.028 541.694 802.288 554.124C802.126 555.174 802.019 556.232 801.968 557.294V557.614C801.919 560.299 802.16 562.981 802.688 565.614C802.813 566.378 803.106 567.105 803.547 567.742C803.988 568.378 804.566 568.909 805.238 569.294L819.778 577.594C820.227 573.979 819.717 570.309 818.298 566.954L890.298 525.174C890.298 525.174 895.808 520.334 898.118 513.914L903.658 512.484C903.658 512.484 911.518 511.144 910.608 509.994Z" fill="#053855" fill-opacity="0.44"/>
<path d="M827.688 578.524L904.208 534.094C904.208 534.094 913.598 525.864 913.018 516.644C912.438 507.424 906.338 505.924 897.178 513.904C897.178 513.904 896.988 506.174 889.758 506.904C882.528 507.634 879.758 512.384 879.758 512.384C879.758 512.384 881.198 498.644 866.758 502.924C863.052 503.971 859.726 506.062 857.174 508.946C854.623 511.831 852.955 515.388 852.368 519.194C852.368 519.194 844.218 517.194 837.698 526.124C833.744 531.843 831.649 538.641 831.698 545.594C831.698 545.594 817.988 550.594 816.248 563.024C814.508 575.454 820.458 581.084 827.688 578.524Z" fill="#3093D5"/>
<path d="M1007.9 583.924L1011.7 582.874L1011.1 578.244C1011.1 578.244 1006.97 578.924 1007.9 583.924Z" fill="#42210B"/>
<path d="M1013.08 570.444C1013.08 570.444 1014.42 586.104 1014.08 586.294C1013.74 586.484 1010.08 586.794 1010.08 586.514C1010.08 586.234 1009.86 579.384 1009.86 579.384C1009.86 579.384 1008.03 582.384 1007.94 583.924C1007.94 583.924 1003.57 581.434 1002.76 579.434C1001.95 577.434 1004.63 569.074 1005.65 568.624" fill="#7F252B"/>
<path d="M998.488 592.134L1002.8 587.564L999.968 584.014C999.968 584.014 997.358 589.784 998.488 592.134Z" fill="#42210B"/>
<path d="M1004.89 574.024L1006.89 592.824C1005.64 593.271 1004.35 593.605 1003.05 593.824C1002.23 593.54 1001.45 593.172 1000.72 592.724L999.998 586.454C999.998 586.454 998.138 588.314 998.468 592.134C998.468 591.874 995.467 590.894 995.117 590.714C993.918 590.193 992.767 589.567 991.678 588.844C990.538 588.054 986.288 584.544 988.568 583.154C990.508 581.964 996.798 582.534 996.798 582.534L996.887 574.774" fill="#7F252B"/>
<path d="M1012.41 506.684C1012.39 506.617 1012.39 506.548 1012.41 506.481C1012.42 506.414 1012.45 506.352 1012.5 506.299C1012.54 506.246 1012.6 506.203 1012.66 506.175C1012.72 506.146 1012.79 506.132 1012.86 506.134C1012.43 504.485 1011.72 502.924 1010.75 501.524L992.548 499.384C992.548 499.384 988.898 512.384 987.488 534.794C986.398 552.164 994.918 577.994 994.918 577.994C994.918 577.994 1003.74 580.234 1007.98 575.874L1007.81 572.134C1010 572.116 1012.2 571.935 1014.37 571.594C1016.56 550.024 1014.9 528.154 1012.41 506.684Z" fill="#029897"/>
<path d="M1008.49 574.874L1006.21 558.774C1005.48 553.644 1004.36 548.374 1004.34 543.164C1004.32 537.954 1006.1 533.304 1006.96 528.344C1007.78 523.543 1007.99 518.658 1007.59 513.804C1007.5 512.674 1005.88 512.664 1005.97 513.804C1006.42 519.234 1006.08 524.7 1004.97 530.034C1003.97 534.804 1002.54 539.324 1002.74 544.284C1002.94 549.244 1003.94 554.284 1004.64 559.284L1006.92 575.384C1007.08 576.464 1008.64 575.994 1008.49 574.874Z" fill="#42210B"/>
<path d="M982.628 494.294C981.828 494.044 981.028 493.814 980.218 493.594H980.148C977.865 492.762 975.525 492.093 973.148 491.594L968.588 488.454C968.485 488.37 968.363 488.314 968.233 488.292C968.102 488.27 967.968 488.282 967.844 488.327C967.72 488.373 967.609 488.45 967.524 488.551C967.439 488.652 967.381 488.774 967.358 488.904C967.098 489.664 968.698 491.304 969.228 491.754L969.428 491.924C969.528 492.014 969.948 492.454 970.078 492.434C968.518 492.529 966.996 492.958 965.618 493.694C965.493 493.766 965.389 493.869 965.318 493.994C965.246 494.119 965.208 494.26 965.208 494.404C965.208 494.548 965.246 494.689 965.318 494.814C965.389 494.938 965.493 495.042 965.618 495.114C965.901 495.243 966.207 495.314 966.518 495.324L966.358 495.384C965.358 495.804 964.868 496.624 965.768 497.514C965.844 497.591 965.936 497.653 966.038 497.694C966.125 497.781 966.234 497.843 966.354 497.873C966.474 497.903 966.599 497.9 966.718 497.864V498.014C966.648 498.174 966.619 498.349 966.633 498.524C966.647 498.698 966.703 498.866 966.798 499.014C966.89 499.143 967.007 499.253 967.142 499.337C967.277 499.422 967.427 499.478 967.584 499.504C967.741 499.53 967.902 499.525 968.057 499.489C968.212 499.453 968.358 499.387 968.488 499.294L968.868 499.154C969.278 500.154 970.418 500.154 971.408 499.814C972.398 499.474 973.588 498.894 974.678 498.494L977.968 499.664C978.848 500.004 980.418 501.034 981.378 500.664C982.338 500.294 981.948 498.734 980.958 499.084C981.168 499.014 980.738 498.974 980.608 498.924L979.708 498.574C980.529 498.9 981.404 499.073 982.288 499.084C982.447 499.078 982.601 499.025 982.731 498.934C982.862 498.842 982.963 498.715 983.024 498.567C983.084 498.42 983.1 498.258 983.071 498.101C983.041 497.944 982.967 497.8 982.858 497.684C982.392 497.233 981.886 496.825 981.348 496.464C981.408 496.282 981.408 496.086 981.348 495.904H981.458C981.651 495.934 981.849 495.895 982.018 495.794L982.198 495.844C983.218 496.214 983.628 494.634 982.628 494.294Z" fill="#FE6162"/>
<path d="M1004.97 472.904C1004.97 472.904 994.838 472.904 991.338 479.274C988.368 484.634 988.968 493.554 988.968 493.554L977.298 492.634C976.29 493.126 975.485 493.955 975.025 494.978C974.565 496.001 974.477 497.153 974.778 498.234C975.228 500.524 986.778 501.584 993.188 503.164C999.598 504.744 1011.11 505.164 1012.93 501.354C1014.75 497.544 1014.52 481.974 1012.4 477.504C1010.28 473.034 1004.97 472.904 1004.97 472.904Z" fill="#3093D5"/>
<path d="M995.628 463.114C995.628 463.114 995.098 470.814 997.448 472.594C999.798 474.374 1003.68 471.434 1003.68 471.434" fill="#FE6162"/>
<path d="M997.548 459.294C996.526 460.076 995.723 461.11 995.218 462.294C993.278 467.144 998.498 473.164 1003.15 474.094L1005.57 473.334C1005.57 473.334 1008.77 468.624 1008.77 465.984C1008.79 463.432 1007.82 460.973 1006.05 459.134C1003.57 456.874 999.968 457.294 997.548 459.294Z" fill="#7F252B"/>
<path d="M1003.16 474.134C1003.16 474.134 994.428 499.294 1000.97 503.424C1007.51 507.554 1020.37 503.794 1017.86 497.564C1015.35 491.334 1005.57 473.374 1005.57 473.374" fill="#7F252B"/>
<path d="M599.339 503.074C596.196 504.954 590.596 507.31 584.873 504.889L581.174 503.324L588.587 495.035C582.671 488.53 579.398 480.059 579.407 471.276C579.417 462.494 582.707 454.029 588.636 447.536C594.565 441.042 602.707 436.986 611.473 436.157C620.24 435.329 629.001 437.789 636.047 443.057C643.093 448.324 647.918 456.022 649.58 464.647C651.242 473.271 649.622 482.204 645.037 489.702C640.451 497.2 633.228 502.724 624.779 505.197C616.329 507.669 607.259 506.912 599.339 503.074V503.074ZM585.135 471.256C585.119 475.305 585.943 479.313 587.555 483.029C589.167 486.745 591.533 490.087 594.503 492.847L596.548 494.764L591.883 499.979C594.313 499.487 596.429 498.176 597.502 497.415L598.975 496.37L600.558 497.238C604.936 499.628 609.846 500.881 614.837 500.881C631.214 500.881 644.538 487.591 644.538 471.257C644.538 454.922 631.214 441.632 614.837 441.632C598.459 441.632 585.135 454.922 585.135 471.257V471.256Z" fill="#A6D2F1"/>
<path d="M582.256 471.257C582.256 453.309 596.843 438.76 614.837 438.76C632.83 438.76 647.417 453.309 647.417 471.257C647.417 489.204 632.83 503.753 614.837 503.753C609.36 503.761 603.971 502.385 599.171 499.755C596.919 501.353 591.425 504.541 585.997 502.245L592.531 494.94C589.283 491.905 586.695 488.237 584.927 484.163C583.16 480.089 582.251 475.696 582.256 471.257V471.257Z" fill="#3093D5"/>
<path opacity="0.1" d="M641.867 471.327C641.867 454.348 628.811 440.413 612.166 438.959C613.115 438.876 614.075 438.831 615.046 438.831C633.04 438.831 647.627 453.38 647.627 471.327C647.627 489.274 633.04 503.823 615.046 503.823C614.076 503.823 613.118 503.778 612.171 503.695C628.813 502.239 641.867 488.304 641.867 471.327Z" fill="black"/>
<path d="M539.757 548.218C531.617 548.222 523.722 545.435 517.396 540.324C511.07 535.213 506.698 528.088 505.012 520.144C503.326 512.201 504.429 503.92 508.136 496.691C511.842 489.462 517.928 483.723 525.372 480.436C532.816 477.15 541.167 476.515 549.025 478.639C556.882 480.762 563.769 485.515 568.532 492.1C573.294 498.686 575.642 506.704 575.182 514.811C574.723 522.918 571.484 530.621 566.007 536.629L573.421 544.917L569.721 546.482C563.998 548.903 558.398 546.548 555.255 544.667C550.424 547.003 545.126 548.217 539.757 548.218V548.218ZM539.757 483.226C523.38 483.226 510.056 496.515 510.056 512.85C510.056 529.185 523.38 542.474 539.757 542.474C544.748 542.474 549.658 541.222 554.036 538.831L555.62 537.963L557.092 539.008C558.165 539.77 560.281 541.081 562.711 541.572L558.046 536.357L560.091 534.44C563.061 531.681 565.427 528.338 567.039 524.622C568.651 520.907 569.475 516.898 569.459 512.85C569.459 496.515 556.135 483.226 539.757 483.226V483.226Z" fill="#A1CFF0"/>
<path d="M572.338 512.85C572.338 494.903 557.751 480.354 539.757 480.354C521.763 480.354 507.177 494.903 507.177 512.85C507.177 530.797 521.763 545.346 539.757 545.346C545.234 545.354 550.623 543.979 555.423 541.348C557.675 542.947 563.169 546.135 568.597 543.838L562.063 536.533C565.311 533.498 567.899 529.83 569.667 525.756C571.434 521.682 572.343 517.289 572.338 512.85Z" fill="#3093D5"/>
<path opacity="0.1" d="M512.936 512.686C512.936 495.707 525.992 481.772 542.637 480.317C541.688 480.234 540.728 480.19 539.757 480.19C521.763 480.19 507.177 494.739 507.177 512.686C507.177 530.633 521.763 545.182 539.757 545.182C540.727 545.182 541.685 545.136 542.632 545.054C525.99 543.597 512.936 529.663 512.936 512.686Z" fill="black"/>
<path d="M622.485 460.932C620.354 457.34 616.136 457.172 616.136 457.172C616.136 457.172 612.027 456.648 609.39 462.12C606.933 467.22 603.542 472.144 608.844 473.338L609.802 470.364L610.395 473.559C611.15 473.613 611.908 473.626 612.664 473.598C618.343 473.415 623.751 473.651 623.577 471.619C623.345 468.917 624.536 464.389 622.485 460.932Z" fill="#2F2E41"/>
<path d="M608.542 492.394C608.479 492.79 608.388 493.18 608.27 493.562C608.136 493.936 607.93 494.282 607.808 494.66C607.42 495.865 607.959 497.208 608.819 498.138C609.566 498.941 610.529 499.512 611.594 499.781C612.377 499.949 613.177 500.032 613.978 500.031C616.194 500.106 618.467 500.173 620.567 499.463C621.23 499.233 621.871 498.943 622.481 498.596C622.674 498.504 622.844 498.371 622.978 498.206C623.119 497.963 623.181 497.684 623.157 497.405C623.153 496.468 622.962 495.536 623.007 494.6C623.032 494.082 623.13 493.564 623.082 493.047C623.015 492.46 622.769 491.908 622.376 491.466C621.983 491.024 621.463 490.714 620.886 490.579C620.29 490.451 619.673 490.521 619.066 490.579C617.492 490.73 615.911 490.8 614.33 490.79C612.714 490.78 611.108 490.534 609.5 490.508C609.025 490.5 609.034 490.647 608.883 491.106C608.744 491.528 608.63 491.958 608.542 492.394V492.394Z" fill="#2F2E41"/>
<path d="M613.127 469.258C613.049 469.663 612.966 470.084 612.721 470.417C612.44 470.8 611.982 471.019 611.679 471.386C611.224 471.939 611.198 472.716 611.196 473.431C611.194 474.089 611.208 474.792 611.576 475.339C611.838 475.678 612.163 475.964 612.534 476.181C613.915 477.109 615.407 478.054 617.073 478.085C617.762 478.098 618.502 477.92 618.956 477.402C619.152 477.158 619.306 476.884 619.412 476.59C619.838 475.543 620.096 474.436 620.177 473.31C620.238 472.78 620.189 472.243 620.031 471.734C619.829 471.171 619.42 470.708 619.15 470.175C618.83 469.541 618.713 468.824 618.815 468.122C618.828 468.072 618.824 468.02 618.803 467.973C618.781 467.948 618.753 467.928 618.722 467.916C618.691 467.903 618.657 467.898 618.624 467.901L615.323 467.664C615.015 467.648 614.709 467.613 614.406 467.559C614.228 467.523 613.758 467.271 613.588 467.338C613.274 467.462 613.192 468.921 613.127 469.258Z" fill="#A0616A"/>
<path opacity="0.1" d="M613.127 469.361C613.049 469.766 612.966 470.186 612.721 470.52C612.44 470.903 611.982 471.122 611.679 471.489C611.224 472.041 611.198 472.819 611.196 473.534C611.194 474.192 611.208 474.895 611.576 475.441C611.838 475.781 612.163 476.067 612.534 476.284C613.915 477.212 615.407 478.157 617.073 478.188C617.762 478.2 618.502 478.023 618.956 477.504C619.152 477.261 619.306 476.987 619.412 476.693C619.838 475.646 620.096 474.539 620.177 473.412C620.238 472.883 620.189 472.346 620.031 471.837C619.829 471.274 619.42 470.811 619.15 470.278C618.83 469.644 618.713 468.927 618.815 468.225C618.828 468.175 618.824 468.123 618.803 468.076C618.781 468.051 618.753 468.031 618.722 468.019C618.691 468.006 618.657 468.001 618.624 468.003L615.323 467.766C615.015 467.751 614.709 467.716 614.406 467.662C614.228 467.626 613.758 467.374 613.588 467.441C613.274 467.565 613.191 469.024 613.127 469.361Z" fill="black"/>
<path d="M616.284 469.699C618.96 469.699 621.128 467.536 621.128 464.868C621.128 462.2 618.96 460.037 616.284 460.037C613.609 460.037 611.441 462.2 611.441 464.868C611.441 467.536 613.609 469.699 616.284 469.699Z" fill="#A0616A"/>
<path d="M613.806 475.689C614.046 475.965 614.334 476.195 614.657 476.367C614.994 476.506 615.356 476.574 615.72 476.569C616.593 476.593 617.54 476.434 618.147 475.808C618.93 475 618.904 473.699 619.518 472.757C619.567 472.672 619.635 472.598 619.716 472.542C619.819 472.486 619.935 472.459 620.052 472.464C620.827 472.457 621.502 472.959 622.112 473.436C622.398 473.633 622.645 473.883 622.837 474.173C622.957 474.407 623.04 474.659 623.081 474.92C623.383 476.392 623.481 477.897 623.579 479.397C623.632 480.225 623.686 481.055 623.682 481.885C623.669 484.619 623.032 487.308 622.398 489.969C622.316 490.312 622.204 490.695 621.892 490.859C621.752 490.922 621.603 490.958 621.45 490.967C619.635 491.18 617.816 491.392 615.989 491.421C615.275 491.431 614.563 491.414 613.85 491.369C613.727 491.367 613.606 491.346 613.49 491.306C613.332 491.231 613.197 491.116 613.097 490.974C612.109 489.731 612.05 488.014 612.057 486.427C612.072 482.55 612.211 478.675 612.473 474.803C612.495 474.484 612.5 474.096 612.269 473.844C612.718 474.509 613.233 475.127 613.806 475.689V475.689Z" fill="white"/>
<path d="M612.781 470.111C612.617 470.406 611.411 471.139 611.178 471.384C609.877 472.752 607.503 472.701 606.313 474.166C605.894 474.681 605.677 475.329 605.517 475.972C605.29 476.883 605.17 477.876 605.549 478.735C605.913 479.561 606.681 480.132 607.202 480.87C607.774 481.68 608.032 482.664 608.278 483.625C608.46 484.333 608.644 485.06 608.573 485.788C608.492 486.617 608.091 487.375 607.853 488.173C607.616 488.97 607.575 489.921 608.124 490.547C608.527 491.008 609.159 491.191 609.763 491.293C610.537 491.409 611.317 491.477 612.1 491.496C612.79 491.527 613.552 491.533 614.082 491.091C614.501 490.742 614.684 490.177 614.707 489.633C614.731 489.09 614.617 488.551 614.546 488.012C614.473 487.452 614.444 486.888 614.421 486.325C614.314 483.796 614.3 481.266 614.377 478.734C614.416 478.208 614.39 477.679 614.3 477.159C614.152 476.482 613.785 475.877 613.479 475.255C612.867 474.083 612.59 472.765 612.678 471.447C612.77 470.092 613.363 469.059 612.781 470.111Z" fill="white"/>
<path d="M619.582 470.213C619.831 470.469 620.678 470.553 620.995 470.717C621.293 470.855 621.604 470.962 621.924 471.038C623.08 471.371 624.18 471.874 625.187 472.532C625.396 472.654 625.581 472.813 625.732 473.002C625.892 473.261 625.995 473.551 626.034 473.852C626.189 474.619 626.345 475.395 626.311 476.176C626.274 477.006 626.023 477.809 625.774 478.602L624.846 481.563C624.153 483.774 623.455 486.006 623.26 488.314C623.152 489.593 623.2 490.88 623.403 492.148C623.422 492.209 623.428 492.274 623.419 492.338C623.411 492.402 623.39 492.464 623.356 492.519C623.295 492.579 623.214 492.616 623.129 492.623C622.68 492.693 622.247 492.465 621.84 492.264C620.599 491.648 619.275 491.215 617.908 490.98C618.442 490.211 618.854 489.364 619.13 488.469C619.286 487.901 619.409 487.325 619.499 486.742L619.931 484.25C620.106 483.339 620.23 482.419 620.301 481.494C620.334 481.147 620.314 480.797 620.241 480.456C620.141 480.131 620.009 479.818 619.846 479.52C619.134 478.043 618.8 476.357 619.081 474.742C619.203 474.035 619.441 473.327 619.342 472.617C619.247 471.934 619.346 471.403 619.17 470.727C618.449 467.952 619.114 469.733 619.582 470.213Z" fill="white"/>
<path d="M606.3 476.501C605.976 477.173 605.433 477.745 605.248 478.468C605.176 478.805 605.145 479.151 605.156 479.496C605.124 480.016 605.176 480.538 605.309 481.041C605.412 481.36 605.58 481.654 605.701 481.966C605.869 482.403 605.944 482.87 605.921 483.337C605.889 483.984 605.668 484.612 605.651 485.26C605.624 486.278 606.096 487.236 606.557 488.145C606.673 487.859 606.851 487.601 607.077 487.39C607.303 487.179 607.573 487.02 607.867 486.923C608.162 486.827 608.474 486.797 608.781 486.833C609.089 486.87 609.385 486.973 609.648 487.136C609.754 487.006 609.804 486.841 609.788 486.675C609.822 485.493 609.855 484.311 609.886 483.13C609.936 481.302 609.984 479.45 609.562 477.67C609.372 476.867 609.076 476.067 608.533 475.444C608.247 475.116 607.277 474.251 606.807 474.619C606.596 474.784 606.646 475.234 606.612 475.462C606.562 475.822 606.456 476.172 606.3 476.501V476.501Z" fill="white"/>
<path d="M626.405 474.565C626.536 475.049 626.592 475.551 626.571 476.052C626.577 477.074 626.564 478.095 626.53 479.116C626.535 479.64 626.468 480.162 626.331 480.668C626.226 480.996 626.064 481.305 625.956 481.632C625.632 482.614 625.809 483.679 625.837 484.713C625.856 485.047 625.828 485.383 625.752 485.709C625.58 486.35 625.12 486.868 624.799 487.448C624.494 488 624.31 488.618 623.946 489.132C623.582 489.647 622.951 490.054 622.34 489.896C621.877 489.777 621.548 489.368 621.32 488.948C620.823 488.025 620.653 486.962 620.838 485.931C621.066 484.677 621.805 483.564 622.072 482.317C622.437 480.605 621.881 478.838 621.898 477.087C621.89 476.813 621.928 476.539 622.008 476.276C622.148 475.877 622.448 475.557 622.726 475.237C623.072 474.836 623.394 474.414 623.689 473.975C623.888 473.68 624.158 472.92 624.51 472.857C625.295 472.716 626.21 473.96 626.405 474.565Z" fill="white"/>
<path d="M602.223 491.633C601.789 491.524 601.341 491.476 600.893 491.492C600.423 491.518 599.963 491.643 599.545 491.86C599.127 492.077 598.76 492.38 598.469 492.749C598.177 493.118 597.968 493.545 597.854 494.001C597.741 494.457 597.727 494.932 597.812 495.395C597.92 495.895 598.097 496.379 598.339 496.831C598.691 497.545 599.114 498.257 599.767 498.715C600.161 498.966 600.584 499.167 601.028 499.313L604.467 500.605C604.973 500.795 605.479 500.986 605.99 501.162C608.556 502.047 611.233 502.577 613.943 502.739C614.768 502.816 615.6 502.774 616.413 502.614C616.61 502.589 616.79 502.491 616.919 502.342C616.984 502.228 617.023 502.1 617.032 501.969L617.243 500.492C617.291 500.286 617.285 500.072 617.225 499.869C617.128 499.621 616.885 499.464 616.654 499.332C614.393 498.036 611.753 497.322 609.85 495.544C609.402 495.126 609.027 494.463 608.483 494.178C607.866 493.856 607.139 493.672 606.501 493.375C605.106 492.726 603.735 491.979 602.223 491.633Z" fill="#2F2E41"/>
<path opacity="0.1" d="M605.656 493.625C606.872 494.005 612.004 496.637 612.883 497.555C612.765 497.598 608.765 495.362 608.645 495.326C607.545 495.024 606.467 494.646 605.421 494.193C605.212 494.096 604.066 493.644 604.118 493.382C604.177 493.086 605.441 493.557 605.656 493.625Z" fill="black"/>
<path d="M620.821 503.505C620.89 503.51 620.958 503.49 621.014 503.449C621.038 503.418 621.056 503.382 621.066 503.344C621.076 503.306 621.079 503.267 621.074 503.228L621.068 501.215C620.488 500.939 619.839 500.85 619.201 500.765L616.228 500.369C616.297 500.378 615.763 501.646 615.845 501.816C615.989 502.114 617.09 502.378 617.401 502.519C618.482 503.009 619.604 503.547 620.821 503.505Z" fill="#A0616A"/>
<path d="M611.493 501.208C610.931 501.297 610.305 501.376 609.941 501.811C609.48 502.364 609.676 503.188 609.896 503.873C609.91 503.961 609.941 504.046 609.988 504.122C610.035 504.198 610.096 504.264 610.169 504.316C610.242 504.368 610.325 504.405 610.412 504.425C610.499 504.444 610.59 504.446 610.678 504.43C611.19 504.463 611.735 504.488 612.182 504.238C612.385 504.104 612.58 503.959 612.766 503.804C613.096 503.585 613.459 503.42 613.841 503.315C614.542 503.094 615.265 502.946 615.997 502.871C616.285 502.858 616.571 502.808 616.846 502.722C616.984 502.678 617.11 502.602 617.213 502.502C617.317 502.402 617.396 502.279 617.445 502.143C617.548 501.777 617.335 501.404 617.131 501.083C616.895 500.663 616.589 500.286 616.226 499.968C615.672 499.539 615.398 499.869 614.84 500.143C613.784 500.663 612.656 501.022 611.493 501.208V501.208Z" fill="#A0616A"/>
<path d="M610.026 501.712L606.461 500.661C606.034 500.513 605.587 500.426 605.135 500.405C604.908 500.395 604.683 500.434 604.473 500.519C604.263 500.604 604.073 500.732 603.917 500.896C603.64 501.22 603.561 501.662 603.492 502.081L603.345 502.979C603.247 503.431 603.219 503.896 603.262 504.356C603.286 504.587 603.362 504.809 603.485 505.006C603.608 505.202 603.774 505.369 603.971 505.492C604.464 505.76 605.068 505.629 605.619 505.517C606.731 505.29 607.862 505.169 608.996 505.155C609.423 505.15 609.871 505.156 610.248 504.956C610.466 504.827 610.65 504.646 610.783 504.43C610.916 504.214 610.994 503.968 611.01 503.715C611.08 502.948 610.824 501.947 610.026 501.712Z" fill="#2F2E41"/>
<path d="M622.222 500.796C622.684 500.715 623.092 500.454 623.535 500.299C624.158 500.081 624.833 500.081 625.493 500.084C625.736 500.062 625.98 500.11 626.196 500.224C626.486 500.417 626.561 500.804 626.61 501.149L626.909 503.23C626.989 503.618 626.997 504.018 626.933 504.409C626.846 504.795 626.582 505.167 626.198 505.266C625.732 505.387 625.275 505.09 624.835 504.895C623.735 504.408 622.457 504.532 621.31 504.168C621.2 504.146 621.097 504.101 621.006 504.036C620.915 503.971 620.838 503.888 620.782 503.791C620.743 503.676 620.729 503.553 620.741 503.432C620.761 502.763 620.619 501.849 620.821 501.21C621.003 500.635 621.706 500.796 622.222 500.796Z" fill="#2F2E41"/>
<path d="M629.765 490.795C630.477 490.617 631.215 490.567 631.945 490.646C632.528 490.71 633.129 490.872 633.554 491.275C634.072 491.764 634.239 492.522 634.253 493.234C634.275 494.651 633.804 496.033 632.919 497.143C632.703 497.423 632.446 497.67 632.156 497.875C631.844 498.069 631.511 498.229 631.164 498.352L623.463 501.381C621.437 502.178 619.404 502.978 617.29 503.503C617.232 503.531 617.17 503.547 617.106 503.55C617.042 503.553 616.977 503.544 616.917 503.522C616.857 503.5 616.801 503.467 616.754 503.423C616.707 503.38 616.669 503.327 616.643 503.269C615.968 502.308 615.402 501.275 614.955 500.189C614.934 500.164 614.919 500.133 614.912 500.101C614.906 500.068 614.907 500.034 614.916 500.002C614.925 499.97 614.941 499.94 614.964 499.916C614.987 499.892 615.015 499.873 615.047 499.862L620.494 496.741C620.894 496.533 621.266 496.277 621.603 495.979C621.838 495.751 622.031 495.483 622.172 495.188C622.285 494.953 622.296 494.398 622.44 494.224C622.581 494.054 623.064 494.04 623.287 493.973C623.602 493.877 623.91 493.761 624.21 493.626C625.428 493.082 626.513 492.292 627.681 491.655C628.336 491.282 629.037 490.993 629.765 490.795V490.795Z" fill="#2F2E41"/>
<path opacity="0.1" d="M626.677 493.126C625.741 493.827 624.529 494.472 623.602 495.191C623.285 495.437 618.008 498.396 617.933 498.789C618.799 498.934 624.311 495.088 625.1 494.704C625.888 494.321 626.587 493.779 627.28 493.242C627.457 493.105 628.205 492.694 627.698 492.541C627.413 492.455 626.887 492.986 626.677 493.126Z" fill="black"/>
<path d="M620.237 470.281H612.022C611.688 470.281 611.368 470.413 611.132 470.649C610.896 470.884 610.764 471.203 610.764 471.536V471.996H610.675V473.024H610.764V473.743H610.675V474.36H610.764V481.945C610.764 482.277 610.896 482.597 611.132 482.832C611.368 483.067 611.688 483.2 612.022 483.2H620.237C620.571 483.2 620.891 483.067 621.127 482.832C621.363 482.597 621.496 482.277 621.496 481.945V471.536C621.496 471.203 621.363 470.884 621.127 470.649C620.891 470.413 620.571 470.281 620.237 470.281V470.281Z" fill="#D0CDE1"/>
<path d="M621.543 460.586L617.376 458.409L611.622 459.3L610.432 464.544L613.395 464.43L614.223 462.504V464.399L615.59 464.346L616.384 461.279L616.88 464.544L621.741 464.445L621.543 460.586Z" fill="#2F2E41"/>
<path d="M607.39 490.116C607.579 490.435 607.847 490.701 608.168 490.888C608.379 490.984 608.609 491.03 608.841 491.024C609.073 491.018 609.3 490.959 609.505 490.852C609.915 490.632 610.251 490.297 610.47 489.887C610.923 489.089 611.017 488.135 610.96 487.22C610.904 486.305 610.708 485.405 610.621 484.492C610.558 483.829 610.553 483.162 610.548 482.495C610.532 482.355 610.562 482.214 610.632 482.092C610.753 481.971 610.91 481.893 611.079 481.869C611.993 481.598 612.599 480.744 613.034 479.898C613.324 479.333 613.577 478.715 613.521 478.082C613.465 477.45 613.009 476.813 612.376 476.748C611.854 476.695 611.372 477.026 610.995 477.39C610.045 478.316 609.434 479.533 609.261 480.846C609.179 481.489 609.202 482.15 609.027 482.774C608.653 484.107 607.481 484.925 606.897 486.124C606.254 487.446 606.609 488.946 607.39 490.116Z" fill="#A0616A"/>
<path d="M624.631 485.023C624.498 485.332 624.304 485.612 624.061 485.845C623.818 486.078 623.53 486.26 623.215 486.38C622.823 486.537 622.391 486.564 621.983 486.456C621.781 486.4 621.595 486.298 621.438 486.158C621.282 486.019 621.16 485.845 621.081 485.651C621.019 485.455 620.985 485.252 620.98 485.046C620.921 484.147 620.944 483.221 621.271 482.382C621.398 482.058 621.568 481.751 621.667 481.418C621.765 481.033 621.815 480.638 621.817 480.241L621.924 477.789C621.942 477.61 621.93 477.431 621.888 477.257C621.78 476.902 621.448 476.671 621.143 476.459C620.406 475.948 619.677 475.352 619.32 474.53C619.198 474.283 619.154 474.004 619.194 473.731C619.295 473.244 619.788 472.929 620.275 472.823C620.594 472.753 620.923 472.749 621.244 472.81C621.564 472.871 621.869 472.996 622.14 473.177C622.411 473.359 622.642 473.593 622.819 473.866C622.997 474.139 623.117 474.445 623.173 474.766C623.221 475.042 623.22 475.325 623.249 475.605C623.308 476.198 623.497 476.769 623.615 477.353C623.906 478.792 623.755 480.28 624.043 481.719C624.283 482.922 625.19 483.707 624.631 485.023Z" fill="#A0616A"/>
<path d="M616.24 475.799C616.809 475.799 617.27 475.339 617.27 474.771C617.27 474.204 616.809 473.743 616.24 473.743C615.671 473.743 615.209 474.204 615.209 474.771C615.209 475.339 615.671 475.799 616.24 475.799Z" fill="#3093D5"/>
<path d="M510.338 508.714C512.017 508.714 513.378 507.357 513.378 505.682C513.378 504.007 512.017 502.65 510.338 502.65C508.659 502.65 507.298 504.007 507.298 505.682C507.298 507.357 508.659 508.714 510.338 508.714Z" fill="#2F2E41"/>
<path d="M515.358 517.684L513.826 516.199L510.751 517.152L511.047 520.703L517.369 520.41L515.427 517.778L515.358 517.684Z" fill="#FBBEBE"/>
<path d="M512.008 517.653C514.723 517.653 516.923 515.458 516.923 512.751C516.923 510.044 514.723 507.849 512.008 507.849C509.294 507.849 507.094 510.044 507.094 512.751C507.094 515.458 509.294 517.653 512.008 517.653Z" fill="#FBBEBE"/>
<path d="M542.521 523.976C542.521 523.976 548.559 534.325 549.996 535.879C550.679 536.644 551.408 537.368 552.177 538.047C552.177 538.047 551.501 540.282 550.425 540.202C549.812 540.165 549.21 540.017 548.65 539.766C548.65 539.766 548.17 538.524 547.332 537.979C546.495 537.435 539.651 530.72 539.811 528.574C539.971 526.427 542.521 523.976 542.521 523.976Z" fill="#2F2E41"/>
<path d="M521.017 538.745C521.017 538.745 527.455 543.729 536.205 539.046L536.959 538.493C536.959 538.493 535.686 541.348 535.568 542.122C535.431 543.019 532.119 548.277 531.578 548.529C531.037 548.781 530.918 549.013 530.918 549.013L533.212 551.532L534.061 550.909C534.061 550.909 537.368 546.235 538.336 545.38C539.303 544.525 543.912 535.707 543.912 535.707C543.912 535.707 545.675 532.385 541.277 532.135C536.879 531.885 534.855 533.081 534.855 533.081L527.049 534.318L521.017 538.745Z" fill="#2F2E41"/>
<path d="M552.251 537.557L555.508 539.804C555.508 539.804 559.662 541.103 557.103 541.967C554.544 542.83 547.8 543.143 547.647 541.951C547.494 540.759 547.913 538.883 548.25 538.985C548.586 539.088 550.921 539.693 552.251 537.557Z" fill="#2F2E41"/>
<path d="M534.349 550.137L534.951 553.438C534.951 553.438 536.665 556.707 534.608 555.693C532.55 554.679 528.31 550.826 528.936 550.018C529.562 549.21 530.944 548.334 531.085 548.597C531.225 548.861 532.263 550.623 534.349 550.137Z" fill="#2F2E41"/>
<path d="M528.14 535.401C528.14 535.401 523.763 540.498 521.106 539.26C518.449 538.022 507.579 523.683 508.82 521.033C510.061 518.383 510.478 518.947 510.478 518.947L516.09 519.465L514.475 516.882C514.475 516.882 515.229 516.329 515.948 517.105C516.666 517.882 519.551 519.823 520.556 522.563C521.561 525.304 524.511 525.167 524.511 525.167L528.14 535.401Z" fill="white"/>
<path d="M545.813 524.893L538.227 532.925L531.431 520.957L537.891 513.172L545.813 524.893Z" fill="#3F3D56"/>
<path d="M545.24 524.806L538.388 531.864L532.179 520.987L537.874 513.837L545.24 524.806Z" fill="white"/>
<path d="M530.855 534.618L531.227 534.925L530.988 535.389L520.38 538.538L520.28 538.176L520.763 537.678L530.855 534.618Z" fill="#B3B3B3"/>
<path d="M538.321 532.856L527.336 536.281L520.64 523.661L531.431 520.957L538.321 532.856Z" fill="#D0CDE1"/>
<path d="M534.227 532.046L529.573 533.401L524.351 524.055L526.653 523.541L528.954 523.026L534.227 532.046Z" fill="#3F3D56"/>
<path d="M523.322 524.736L524.284 524.464C524.284 524.464 529.649 523.859 529.727 525.541C529.806 527.222 523.564 526.442 523.564 526.442L522.731 525.314L523.322 524.736Z" fill="#FBBEBE"/>
<path d="M528.028 532.295L529.367 531.747C529.367 531.747 533.409 529.94 532.249 528.762C531.09 527.584 527.514 529.629 527.514 529.629L526.829 530.277L528.028 532.295Z" fill="#FBBEBE"/>
<path d="M526.834 529.693C526.834 529.693 529.014 531.861 528.518 532.37C528.022 532.879 519.886 539.575 517.869 537.433C515.853 535.29 506.026 524.533 509.85 523.61C513.674 522.688 514.684 524.844 514.684 524.844L519.731 533.458L526.834 529.693Z" fill="white"/>
<path d="M520.305 523.109L523.887 524.321L523.828 526.9L520.04 526.492L520.305 523.109Z" fill="white"/>
<path opacity="0.2" d="M530.533 538.029L526.674 540.282L522.265 533.519L526.521 539.09L530.533 538.029Z" fill="black"/>
<path d="M509.851 517.166C513.083 517.166 515.702 514.553 515.702 511.33C515.702 508.107 513.083 505.494 509.851 505.494C506.62 505.494 504 508.107 504 511.33C504 514.553 506.62 517.166 509.851 517.166Z" fill="#2F2E41"/>
<path d="M564.466 507.402L560.369 501.424L562.106 499.28L566.363 505.43L564.466 507.402Z" fill="#3093D5"/>
<path d="M541.351 527.805L535.114 518.761L535.421 518.391L541.63 527.456L541.351 527.805Z" fill="#E6E6E6"/>
<path d="M540.547 528.685L534.31 519.641L534.617 519.27L540.826 528.336L540.547 528.685Z" fill="#E6E6E6"/>
<path d="M539.863 529.333L533.625 520.289L533.933 519.918L540.141 528.983L539.863 529.333Z" fill="#E6E6E6"/>
<path d="M512.442 507.434H514.252C515.169 507.434 516.048 507.797 516.696 508.443C517.344 509.09 517.708 509.966 517.708 510.88V510.88H512.442V507.434Z" fill="#2F2E41"/>
<path d="M537.375 505.24L537.047 505.216C537.035 505.386 537.025 505.557 537.015 505.728L535.542 505.679L537.087 508.567L538.822 505.789L537.344 505.739C537.354 505.573 537.363 505.406 537.375 505.24Z" fill="#3F3D56"/>
<path d="M546.014 481.703L546.276 481.902C546.668 481.389 547.078 480.877 547.494 480.381L547.242 480.17C546.823 480.671 546.41 481.186 546.014 481.703Z" fill="#3F3D56"/>
<path d="M548.535 478.693L548.778 478.915C549.215 478.438 549.668 477.964 550.126 477.507L549.893 477.275C549.432 477.736 548.975 478.213 548.535 478.693Z" fill="#3F3D56"/>
<path d="M551.311 475.918L551.533 476.16C552.011 475.722 552.504 475.291 552.999 474.876L552.787 474.625C552.289 475.042 551.792 475.477 551.311 475.918Z" fill="#3F3D56"/>
<path d="M543.768 484.923L544.046 485.098C544.392 484.552 544.756 484.006 545.126 483.475L544.856 483.288C544.483 483.823 544.117 484.373 543.768 484.923Z" fill="#3F3D56"/>
<path d="M554.318 473.397L554.519 473.658C555.033 473.264 555.562 472.877 556.091 472.508L555.902 472.239C555.369 472.611 554.836 473.001 554.318 473.397Z" fill="#3F3D56"/>
<path d="M541.815 488.33L542.108 488.48C542.405 487.905 542.718 487.328 543.04 486.767L542.754 486.604C542.43 487.17 542.114 487.75 541.815 488.33Z" fill="#3F3D56"/>
<path d="M538.641 497.569L538.322 497.487C538.16 498.117 538.009 498.759 537.875 499.396L538.197 499.464C538.33 498.832 538.48 498.194 538.641 497.569Z" fill="#3F3D56"/>
<path d="M557.536 471.151L557.712 471.428C558.258 471.082 558.819 470.743 559.379 470.421L559.215 470.137C558.65 470.461 558.085 470.802 557.536 471.151Z" fill="#3F3D56"/>
<path d="M537.838 501.376L537.513 501.323C537.407 501.964 537.314 502.617 537.237 503.264L537.564 503.303C537.641 502.661 537.733 502.013 537.838 501.376Z" fill="#3F3D56"/>
<path d="M540.173 491.898L540.477 492.022C540.721 491.422 540.983 490.821 541.253 490.232L540.954 490.095C540.681 490.688 540.418 491.294 540.173 491.898Z" fill="#3F3D56"/>
<path d="M538.855 495.6L539.17 495.696C539.359 495.077 539.566 494.453 539.783 493.844L539.472 493.734C539.254 494.348 539.046 494.976 538.855 495.6Z" fill="#3F3D56"/>
<path d="M579.798 464.609C580.443 464.587 581.1 464.578 581.75 464.584L581.752 464.255C581.098 464.249 580.436 464.258 579.786 464.281L579.798 464.609Z" fill="#3F3D56"/>
<path d="M560.937 469.198L561.089 469.489C561.663 469.192 562.252 468.905 562.837 468.634L562.699 468.336C562.109 468.609 561.516 468.899 560.937 469.198Z" fill="#3F3D56"/>
<path d="M587.585 465.018C588.227 465.109 588.875 465.215 589.511 465.333L589.571 465.011C588.931 464.891 588.278 464.784 587.631 464.693L587.585 465.018Z" fill="#3F3D56"/>
<path d="M591.421 465.734C592.051 465.881 592.687 466.044 593.311 466.219L593.4 465.903C592.772 465.726 592.131 465.562 591.496 465.414L591.421 465.734Z" fill="#3F3D56"/>
<path d="M595.177 466.787C595.791 466.989 596.41 467.208 597.016 467.438L597.133 467.131C596.523 466.9 595.899 466.679 595.28 466.475L595.177 466.787Z" fill="#3F3D56"/>
<path d="M583.7 464.643C584.349 464.677 585.003 464.726 585.647 464.788L585.679 464.461C585.03 464.399 584.371 464.35 583.718 464.316L583.7 464.643Z" fill="#3F3D56"/>
<path d="M575.869 464.588L575.909 464.914C576.55 464.835 577.203 464.769 577.85 464.719L577.824 464.391C577.173 464.442 576.515 464.509 575.869 464.588Z" fill="#3F3D56"/>
<path d="M568.191 466.23L568.289 466.543C568.907 466.352 569.538 466.173 570.164 466.009L570.081 465.692C569.45 465.856 568.814 466.037 568.191 466.23Z" fill="#3F3D56"/>
<path d="M564.497 467.553L564.622 467.857C565.22 467.612 565.831 467.378 566.438 467.16L566.327 466.851C565.715 467.071 565.1 467.307 564.497 467.553Z" fill="#3F3D56"/>
<path d="M571.993 465.238L572.062 465.559C572.695 465.424 573.339 465.301 573.978 465.194L573.924 464.87C573.28 464.978 572.63 465.102 571.993 465.238Z" fill="#3F3D56"/>
<path d="M601.927 469.468L600.087 466.757L599.441 468.084C599.284 468.015 599.129 467.943 598.972 467.876L598.841 468.177C598.994 468.243 599.145 468.312 599.297 468.38L598.653 469.701L601.927 469.468Z" fill="#3F3D56"/>
<path d="M633.065 486.455L640.105 463.062L641.176 463.08L634.058 486.452L633.065 486.455Z" fill="#E6E6E6"/>
<path d="M630.421 486.284L637.462 462.892L638.532 462.91L631.414 486.282L630.421 486.284Z" fill="#E6E6E6"/>
<path d="M628.346 485.997L635.386 462.604L636.457 462.622L629.339 485.994L628.346 485.997Z" fill="#E6E6E6"/>
<path d="M666.723 448.185L666.31 447.582C665.997 447.796 665.687 448.019 665.375 448.237L663.415 445.614L660.547 452.309L667.781 451.456L665.813 448.823C666.116 448.61 666.418 448.394 666.723 448.185Z" fill="white"/>
<path d="M719.591 430.439L719.608 431.17C721.043 431.138 722.501 431.137 723.941 431.168L723.956 430.437C722.505 430.406 721.037 430.407 719.591 430.439Z" fill="white"/>
<path d="M728.317 430.628L728.27 431.357C729.704 431.451 731.156 431.579 732.585 431.736L732.664 431.009C731.225 430.851 729.762 430.723 728.317 430.628Z" fill="white"/>
<path d="M736.99 431.582L736.88 432.304C738.302 432.524 739.737 432.779 741.144 433.06L741.286 432.344C739.869 432.06 738.423 431.804 736.99 431.582Z" fill="white"/>
<path d="M710.88 431.021L710.962 431.748C712.39 431.589 713.842 431.459 715.279 431.363L715.229 430.634C713.782 430.731 712.319 430.861 710.88 431.021Z" fill="white"/>
<path d="M745.544 433.293L745.371 434.003C746.769 434.347 748.175 434.726 749.551 435.131L749.756 434.429C748.37 434.022 746.953 433.64 745.544 433.293Z" fill="white"/>
<path d="M702.252 432.372L702.398 433.088C703.808 432.802 705.244 432.545 706.665 432.323L706.552 431.601C705.119 431.824 703.673 432.084 702.252 432.372Z" fill="white"/>
<path d="M681.801 439.713L681.5 439.047C680.181 439.64 678.857 440.272 677.564 440.925L677.894 441.577C679.177 440.93 680.491 440.302 681.801 439.713Z" fill="white"/>
<path d="M753.913 435.75L753.677 436.441C755.036 436.906 756.403 437.408 757.74 437.932L758.006 437.252C756.658 436.724 755.281 436.218 753.913 435.75Z" fill="white"/>
<path d="M674.074 443.614L673.716 442.976C672.456 443.684 671.194 444.431 669.963 445.197L670.349 445.817C671.571 445.058 672.824 444.316 674.074 443.614Z" fill="white"/>
<path d="M693.775 434.484L693.984 435.184C695.363 434.775 696.771 434.39 698.168 434.042L697.99 433.333C696.582 433.684 695.164 434.071 693.775 434.484Z" fill="white"/>
<path d="M685.516 437.346L685.787 438.025C687.126 437.493 688.495 436.984 689.854 436.513L689.614 435.822C688.244 436.297 686.865 436.81 685.516 437.346Z" fill="white"/>
<path d="M796.191 465.263C797.126 466.351 798.054 467.478 798.946 468.614L799.52 468.162C798.622 467.019 797.687 465.883 796.745 464.787L796.191 465.263Z" fill="white"/>
<path d="M762.029 438.934L761.733 439.601C763.047 440.185 764.363 440.805 765.647 441.445L765.972 440.791C764.679 440.147 763.352 439.522 762.029 438.934Z" fill="white"/>
<path d="M806.296 479.338C807.031 480.578 807.746 481.849 808.423 483.117L809.068 482.773C808.386 481.496 807.665 480.215 806.925 478.966L806.296 479.338Z" fill="white"/>
<path d="M810.381 486.986C811.002 488.283 811.602 489.613 812.164 490.938L812.837 490.653C812.27 489.318 811.665 487.979 811.04 486.672L810.381 486.986Z" fill="white"/>
<path d="M813.769 494.965C814.272 496.312 814.751 497.69 815.194 499.06L815.889 498.836C815.443 497.455 814.96 496.068 814.454 494.711L813.769 494.965Z" fill="white"/>
<path d="M801.552 472.08C802.393 473.251 803.218 474.455 804.004 475.657L804.616 475.258C803.824 474.046 802.993 472.834 802.145 471.654L801.552 472.08Z" fill="white"/>
<path d="M790.771 458.42L790.261 458.942C791.288 459.945 792.309 460.987 793.295 462.037L793.828 461.538C792.834 460.479 791.806 459.43 790.771 458.42Z" fill="white"/>
<path d="M777.256 447.388L776.847 447.992C778.038 448.799 779.226 449.644 780.38 450.503L780.816 449.917C779.654 449.052 778.456 448.201 777.256 447.388Z" fill="white"/>
<path d="M769.827 442.82L769.474 443.459C770.73 444.157 771.986 444.891 773.207 445.641L773.589 445.019C772.358 444.262 771.093 443.523 769.827 442.82Z" fill="white"/>
<path d="M784.259 452.603L783.797 453.169C784.91 454.078 786.019 455.025 787.093 455.984L787.58 455.439C786.497 454.473 785.38 453.518 784.259 452.603Z" fill="white"/>
<path d="M818.49 510.398L820.642 503.439L817.439 504.164C817.342 503.795 817.25 503.426 817.15 503.061L816.445 503.253C816.543 503.61 816.632 503.968 816.726 504.325L813.538 505.046L818.49 510.398Z" fill="white"/>
<path d="M794.054 460.653L774.009 446.689L774.359 445.677L794.36 459.708L794.054 460.653Z" fill="#E6E6E6"/>
<path d="M793.07 463.113L773.024 449.149L773.375 448.137L793.376 462.168L793.07 463.113Z" fill="#E6E6E6"/>
<path d="M792.152 464.996L772.106 451.032L772.456 450.02L792.458 464.051L792.152 464.996Z" fill="#E6E6E6"/>
<path d="M767.711 361.001L768.411 361.211C768.827 359.837 769.279 358.452 769.756 357.092L769.066 356.851C768.586 358.221 768.13 359.617 767.711 361.001Z" fill="white"/>
<path d="M770.603 352.766L771.281 353.037C771.817 351.703 772.389 350.363 772.983 349.053L772.317 348.752C771.719 350.071 771.142 351.422 770.603 352.766Z" fill="white"/>
<path d="M774.205 344.818L774.858 345.148C775.509 343.865 776.197 342.58 776.902 341.33L776.265 340.972C775.555 342.231 774.862 343.526 774.205 344.818Z" fill="white"/>
<path d="M765.556 369.461L766.272 369.609C766.565 368.202 766.893 366.782 767.249 365.386L766.54 365.207C766.182 366.613 765.851 368.044 765.556 369.461Z" fill="white"/>
<path d="M778.492 337.22L779.112 337.606C779.874 336.384 780.672 335.165 781.483 333.983L780.881 333.57C780.063 334.762 779.259 335.99 778.492 337.22Z" fill="white"/>
<path d="M764.158 378.081L764.884 378.165C765.051 376.736 765.252 375.291 765.483 373.871L764.761 373.755C764.529 375.186 764.326 376.641 764.158 378.081Z" fill="white"/>
<path d="M764.778 399.801L764.051 399.88C764.205 401.318 764.394 402.773 764.613 404.205L765.335 404.094C765.119 402.674 764.931 401.229 764.778 399.801Z" fill="white"/>
<path d="M783.428 330.03L784.012 330.469C784.876 329.322 785.778 328.179 786.692 327.071L786.128 326.606C785.207 327.723 784.298 328.875 783.428 330.03Z" fill="white"/>
<path d="M766.083 408.358L765.366 408.501C765.647 409.917 765.965 411.35 766.31 412.758L767.02 412.583C766.677 411.186 766.362 409.764 766.083 408.358Z" fill="white"/>
<path d="M763.53 386.795L764.261 386.814C764.3 385.376 764.372 383.919 764.476 382.483L763.746 382.431C763.642 383.878 763.569 385.346 763.53 386.795Z" fill="white"/>
<path d="M763.683 395.534L764.412 395.488C764.323 394.05 764.265 392.591 764.24 391.152L763.509 391.166C763.534 392.615 763.592 394.085 763.683 395.534Z" fill="white"/>
<path d="M824.622 299.021C825.946 298.471 827.306 297.939 828.662 297.444L828.412 296.758C827.046 297.257 825.676 297.792 824.342 298.346L824.622 299.021Z" fill="white"/>
<path d="M788.977 323.306L789.519 323.795C790.483 322.728 791.482 321.669 792.488 320.648L791.968 320.136C790.953 321.164 789.947 322.231 788.977 323.306Z" fill="white"/>
<path d="M841.141 293.792C842.547 293.479 843.978 293.194 845.393 292.945L845.266 292.226C843.841 292.477 842.399 292.764 840.982 293.079L841.141 293.792Z" fill="white"/>
<path d="M849.679 292.287C851.105 292.1 852.556 291.944 853.99 291.821L853.928 291.093C852.483 291.217 851.022 291.375 849.585 291.563L849.679 292.287Z" fill="white"/>
<path d="M858.316 291.547C859.753 291.488 861.211 291.461 862.651 291.466L862.654 290.736C861.203 290.731 859.734 290.758 858.287 290.817L858.316 291.547Z" fill="white"/>
<path d="M832.767 296.045C834.142 295.609 835.542 295.199 836.929 294.826L836.74 294.121C835.342 294.497 833.932 294.91 832.547 295.349L832.767 296.045Z" fill="white"/>
<path d="M816.432 302.045L816.77 302.692C818.043 302.028 819.35 301.381 820.655 300.771L820.346 300.109C819.031 300.724 817.714 301.376 816.432 302.045Z" fill="white"/>
<path d="M801.746 311.461L802.193 312.038C803.33 311.157 804.503 310.29 805.678 309.46L805.257 308.864C804.073 309.7 802.891 310.573 801.746 311.461Z" fill="white"/>
<path d="M795.095 317.102L795.593 317.637C796.646 316.66 797.734 315.694 798.827 314.767L798.354 314.211C797.253 315.145 796.156 316.118 795.095 317.102Z" fill="white"/>
<path d="M808.88 306.426L809.274 307.041C810.484 306.266 811.728 305.506 812.974 304.784L812.607 304.152C811.352 304.88 810.098 305.645 808.88 306.426Z" fill="white"/>
<path d="M874.452 291.858L868.507 287.649L868.2 290.919C867.82 290.896 867.44 290.869 867.062 290.85L867.026 291.58C867.395 291.598 867.763 291.624 868.131 291.646L867.826 294.901L874.452 291.858Z" fill="white"/>
<path d="M938.298 261C938.298 261 916.843 263.958 915.298 287.549L930.119 291L938.298 261Z" fill="#3093D5"/>
<path opacity="0.46" d="M938.298 261C938.298 261 916.843 263.958 915.298 287.549L930.119 291L938.298 261Z" fill="white"/>
<path d="M1016.3 241H979.298V287H1016.3V241Z" fill="#E6E6E6"/>
<path d="M1032.3 299H1013.3V303H1032.3V299Z" fill="#3093D5"/>
<path d="M1034.3 297H1014.3V301H1034.3V297Z" fill="#3093D5" fill-opacity="0.78"/>
<path opacity="0.08" d="M1034.3 297H1014.3V301H1034.3V297Z" fill="#B0DAFE"/>
<path opacity="0.45" d="M997.298 367C1039.27 367 1073.3 362.971 1073.3 358C1073.3 353.029 1039.27 349 997.298 349C955.324 349 921.298 353.029 921.298 358C921.298 362.971 955.324 367 997.298 367Z" fill="#E6E6E6"/>
<path d="M1051.3 303H942.298V358H1051.3V303Z" fill="#C9C9C9"/>
<path d="M1051.3 303H942.298V310H1051.3V303Z" fill="#E6E6E6"/>
<path opacity="0.08" d="M997.943 304.082C997.943 304.082 1000.96 319.044 989.405 324.366C977.854 329.687 976.975 343.756 985.679 358H946.298L948.703 315.887L971.807 303L991.896 303.249L997.943 304.082Z" fill="black"/>
<path d="M916.675 288C916.675 288 910.404 311.956 924.623 312L929.298 299.68L926.953 290.523L916.675 288Z" fill="#F4A28C"/>
<path opacity="0.31" d="M916.675 288C916.675 288 910.404 311.956 924.623 312L929.298 299.68L926.953 290.523L916.675 288Z" fill="#CE8172"/>
<path d="M943.584 356C943.584 356 942.852 358.173 940.997 358.343C939.142 358.512 938.637 360.437 940.332 360.93C942.026 361.424 946.298 359.141 946.298 359.141L946.17 356.314L943.584 356Z" fill="#24285B"/>
<path d="M972.018 356C972.018 356 972.75 358.173 974.607 358.348C976.463 358.522 976.945 360.437 975.273 360.93C973.601 361.424 969.298 359.145 969.298 359.145L969.43 356.314L972.018 356Z" fill="#24285B"/>
<path opacity="0.58" d="M1029.42 296.479C1029.42 296.479 1024.4 294.838 1023.3 289.158C1023.3 289.158 1031.04 287.209 1031.3 297L1029.42 296.479Z" fill="#3093D5"/>
<path opacity="0.73" d="M1030.26 296C1030.26 296 1026.22 289.817 1029.73 284C1029.73 284 1036.52 288.173 1033.54 296H1030.26Z" fill="#3093D5"/>
<path d="M1031.3 296C1031.3 296 1033.26 289.296 1039.19 288C1039.19 288 1040.32 292.345 1035.36 296H1031.3Z" fill="#3093D5"/>
<path d="M1027.3 296L1028.43 303H1035.31L1036.3 296H1027.3Z" fill="#24285B"/>
<path d="M957.124 247.778L955.991 246.583C955.799 245.304 955.565 244.34 955.565 244.34C955.152 242.171 951.975 241.119 950.32 242.909C949.848 243.357 949.518 243.952 949.376 244.61C949.234 245.269 949.286 245.958 949.527 246.583L951.012 249.534C951.677 251.354 953.213 251.875 954.368 251.993C954.59 252.014 954.814 251.987 955.026 251.914C955.239 251.841 955.436 251.725 955.606 251.57C955.777 251.416 955.917 251.227 956.019 251.014C956.121 250.802 956.183 250.569 956.202 250.331C956.227 249.902 956.227 249.472 956.202 249.042L956.908 248.762C957 248.733 957.083 248.679 957.149 248.604C957.215 248.53 957.261 248.438 957.283 248.338C957.305 248.238 957.302 248.133 957.274 248.035C957.246 247.937 957.194 247.848 957.124 247.778V247.778Z" fill="#F4A28C"/>
<path d="M949.202 248L948.298 259.921L954.298 260L952.588 251.511L949.202 248Z" fill="#F4A28C"/>
<path d="M947.298 244.977C948.6 245.585 948.783 247.071 949.123 248.354L949.536 249.951C950.132 250.064 950.753 249.981 951.291 249.717C951.828 249.452 952.249 249.023 952.48 248.503C952.779 247.898 952.84 247.216 952.653 246.574C952.606 246.427 952.596 246.273 952.622 246.123C952.648 245.972 952.71 245.829 952.804 245.703C952.898 245.578 953.02 245.473 953.163 245.396C953.306 245.32 953.466 245.274 953.631 245.261L954.206 245.208C954.951 245.124 955.666 244.885 956.298 244.509V244.509L956.094 242" fill="#24285B"/>
<path d="M952.298 248.505C952.298 248.505 952.16 246.677 951.61 247.05C951.061 247.424 951.257 250.064 952.032 249.999L952.298 248.505Z" fill="#F4A28C"/>
<path opacity="0.31" d="M952.898 252.223C952.309 252.047 951.762 251.625 951.315 251C951.315 251 950.974 253.977 953.298 255L952.898 252.223Z" fill="#CE8172"/>
<path d="M938.317 260.743C938.317 260.743 955.635 255.672 973.284 262.83C990.932 269.988 964.119 316 964.119 316H937.08C937.08 316 912.015 265.923 938.317 260.743Z" fill="#3093D5"/>
<path d="M988.798 251C990.178 251 991.298 250.105 991.298 249C991.298 247.895 990.178 247 988.798 247C987.417 247 986.298 247.895 986.298 249C986.298 250.105 987.417 251 988.798 251Z" fill="#C9C9C9"/>
<path d="M993.768 253.615C993.471 251.866 989.505 251.999 989.296 252.004C989.086 252.009 985.126 251.866 984.829 253.615C984.58 255.072 983.654 260.933 983.313 263.101C983.271 263.325 983.314 263.556 983.432 263.747C983.55 263.939 983.735 264.074 983.947 264.124V264.124C984.054 264.149 984.166 264.153 984.274 264.133C984.383 264.114 984.487 264.072 984.58 264.01C984.673 263.948 984.754 263.868 984.817 263.773C984.881 263.679 984.926 263.572 984.95 263.459L986.592 255.753L986.899 264.318L986.616 276.97C986.615 277.221 986.701 277.464 986.859 277.653C987.017 277.841 987.236 277.962 987.474 277.992C987.606 278.009 987.739 277.998 987.867 277.959C987.994 277.919 988.113 277.853 988.215 277.764C988.317 277.675 988.401 277.565 988.461 277.441C988.521 277.316 988.557 277.18 988.565 277.041L989.081 268.348C989.081 268.288 989.104 268.231 989.144 268.189C989.184 268.146 989.239 268.123 989.296 268.123C989.353 268.123 989.407 268.146 989.447 268.189C989.487 268.231 989.51 268.288 989.51 268.348L990.031 277.041C990.04 277.18 990.075 277.316 990.135 277.441C990.195 277.565 990.279 277.675 990.381 277.764C990.483 277.853 990.602 277.919 990.729 277.959C990.857 277.998 990.991 278.009 991.122 277.992C991.36 277.962 991.579 277.841 991.737 277.653C991.895 277.464 991.982 277.221 991.98 276.97L991.697 264.318L992.009 255.727L993.641 263.439C993.665 263.551 993.71 263.658 993.774 263.753C993.837 263.847 993.918 263.928 994.011 263.99C994.105 264.051 994.209 264.093 994.317 264.113C994.426 264.132 994.537 264.129 994.645 264.103V264.103C994.857 264.053 995.042 263.918 995.161 263.727C995.28 263.537 995.323 263.305 995.283 263.081C994.932 260.933 994.011 255.072 993.768 253.615Z" fill="#C9C9C9"/>
<path d="M954.506 247.829H957.298L956.116 252L951.298 249.172V248.8L952.792 249.634C952.88 249.685 952.98 249.71 953.08 249.707C953.181 249.704 953.279 249.674 953.365 249.618C953.45 249.563 953.521 249.485 953.569 249.391C953.617 249.298 953.64 249.194 953.638 249.088C953.625 248.802 953.54 248.526 953.39 248.288C953.24 248.049 953.032 247.859 952.788 247.735L952.34 247.5L951.964 247L952.908 247.471C953.411 247.707 953.955 247.829 954.506 247.829V247.829Z" fill="#3093D5"/>
<path opacity="0.08" d="M942.43 273H948.966L952.083 290.916H943.624C943.624 290.916 940.094 305.669 952.298 316H937.905C937.905 316 930.374 298.78 928.961 292.64L928.298 279.337L942.43 273Z" fill="black"/>
<path d="M948.298 259.385L951.395 265L954.298 259.245C952.31 258.876 950.265 258.924 948.298 259.385Z" fill="#F4A28C"/>
<path d="M925.298 268H940.981L943.298 285H927.838L925.298 268Z" fill="#029897"/>
<path opacity="0.08" d="M930.457 278C931.334 278.147 932.148 278.517 932.803 279.067C933.459 279.618 933.929 280.326 934.158 281.109C935.097 283.938 942.921 282.304 942.921 282.304L943.298 285L929.298 284.96L930.457 278Z" fill="black"/>
<path d="M929.298 266L929.945 269H935.298L934.807 266H929.298Z" fill="#24285B"/>
<path d="M926.09 283.115C926.09 283.115 923.715 278.809 927.187 277.258C930.659 275.706 931.411 281.527 928.49 285L926.09 283.115Z" fill="#24285B"/>
<path d="M949.448 248C949.448 248 951.375 245.505 955.678 244.894C955.678 244.894 957.352 242.431 955.198 240.697C953.044 238.964 947.925 240.725 946.742 243.11C946.079 244.451 945.629 248.027 949.448 248Z" fill="#3093D5"/>
<path d="M927.195 283C927.195 283 914.655 308.949 923.392 311.804C932.13 314.658 930.091 285.448 930.091 285.448L927.195 283Z" fill="#F4A28C"/>
<path d="M965.886 268.612C968.224 263.703 974.616 262.501 978.729 266.035C984.501 271.022 995.132 284.864 997.072 298.092C1000.15 319.037 970.722 321 970.722 321L969.752 316.42C969.752 316.42 989.055 311.512 983.526 297.768C979.103 286.773 961.924 276.927 965.886 268.612Z" fill="#F4A28C"/>
<path opacity="0.08" d="M979.298 266C979.298 266 996.711 270.651 1000.3 287H991.304L979.298 266Z" fill="black"/>
<path d="M964.4 266.706C964.4 266.706 969.57 260.457 976.138 264.188C982.706 267.918 991.298 281.642 991.298 281.642L976.793 292C976.793 292 955.705 274.171 964.4 266.706Z" fill="#3093D5"/>
<path opacity="0.46" d="M964.4 266.706C964.4 266.706 969.57 260.457 976.138 264.188C982.706 267.918 991.298 281.642 991.298 281.642L976.793 292C976.793 292 955.705 274.171 964.4 266.706Z" fill="white"/>
<path d="M965.383 316H938.298L942.823 356H947.93L952.43 323.596L969.275 356H974.298L965.383 316Z" fill="#3093D5"/>
<path opacity="0.08" d="M965.383 316H938.298L942.823 356H947.93L952.43 323.596L969.275 356H974.298L965.383 316Z" fill="black"/>
<path d="M1012.3 246H999.298V256H1012.3V246Z" fill="#C9C9C9"/>
<path d="M1012.3 260H999.298V263H1012.3V260Z" fill="white"/>
<path opacity="0.5" d="M1012.3 265H999.298V266H1012.3V265Z" fill="white"/>
<path opacity="0.5" d="M1012.3 269H999.298V271H1012.3V269Z" fill="white"/>
<path d="M1010.8 283C1012.18 283 1013.3 281.881 1013.3 280.5C1013.3 279.119 1012.18 278 1010.8 278C1009.42 278 1008.3 279.119 1008.3 280.5C1008.3 281.881 1009.42 283 1010.8 283Z" fill="#24285B"/>
<path d="M969.259 316C969.259 316 960.085 318.304 962.8 322.397C965.516 326.489 970.298 321.455 970.298 321.455L969.259 316Z" fill="#24285B"/>
<path d="M944.424 268C944.375 267.715 943.318 260.987 948.298 259V259.619C943.727 261.451 944.978 267.836 944.978 267.923L944.424 268Z" fill="#24285B"/>
<path d="M957.642 274L957.217 273.898C959.434 261.551 955.34 259.554 955.298 259.534V259C955.493 259.078 959.935 261.24 957.642 274Z" fill="#24285B"/>
<path d="M960.981 280L959.979 279.805C959.979 279.777 960.832 276.964 959.553 275.568C959.344 275.343 959.072 275.16 958.758 275.032C958.445 274.904 958.098 274.834 957.745 274.829C957.392 274.795 957.034 274.822 956.697 274.91C956.359 274.998 956.05 275.143 955.793 275.337C954.18 276.554 954.329 279.485 954.329 279.513L953.301 279.55C953.301 279.416 953.132 276.25 955.074 274.756C955.439 274.48 955.877 274.27 956.356 274.142C956.836 274.015 957.345 273.972 957.847 274.018C958.35 274.031 958.843 274.134 959.288 274.32C959.733 274.506 960.118 274.769 960.416 275.089C961.957 276.782 961.017 279.866 960.981 280Z" fill="#24285B"/>
<path d="M957.298 275C957.85 275 958.298 274.552 958.298 274C958.298 273.448 957.85 273 957.298 273C956.745 273 956.298 273.448 956.298 274C956.298 274.552 956.745 275 957.298 275Z" fill="#029897"/>
<path d="M945.298 270C946.402 270 947.298 269.105 947.298 268C947.298 266.895 946.402 266 945.298 266C944.193 266 943.298 266.895 943.298 268C943.298 269.105 944.193 270 945.298 270Z" fill="#029897"/>
<path opacity="0.08" d="M945.798 269C946.626 269 947.298 268.328 947.298 267.5C947.298 266.672 946.626 266 945.798 266C944.969 266 944.298 266.672 944.298 267.5C944.298 268.328 944.969 269 945.798 269Z" fill="black"/>
<path d="M955.095 285C952.996 283.96 953.307 279.201 953.322 279L953.816 279.034C953.816 279.083 953.51 283.666 955.298 284.563L955.095 285Z" fill="#24285B"/>
<path d="M955.798 285C956.074 285 956.298 284.776 956.298 284.5C956.298 284.224 956.074 284 955.798 284C955.521 284 955.298 284.224 955.298 284.5C955.298 284.776 955.521 285 955.798 285Z" fill="#029897"/>
<path d="M957.468 285L957.298 284.517C959.369 283.853 959.758 279.051 959.764 279L960.298 279.041C960.276 279.247 959.876 284.234 957.468 285Z" fill="#24285B"/>
<path d="M957.298 285C957.85 285 958.298 284.776 958.298 284.5C958.298 284.224 957.85 284 957.298 284C956.745 284 956.298 284.224 956.298 284.5C956.298 284.776 956.745 285 957.298 285Z" fill="#029897"/>
<defs>
<linearGradient id="paint0_linear" x1="0" y1="0" x2="1152" y2="701" gradientUnits="userSpaceOnUse">
<stop stop-color="#D5EBFD"/>
<stop offset="1" stop-color="#3093D5" stop-opacity="0.78"/>
</linearGradient>
<linearGradient id="paint1_linear" x1="917.308" y1="579.334" x2="949.238" y2="551.084" gradientUnits="userSpaceOnUse">
<stop stop-color="#BF5A00" stop-opacity="0.03"/>
<stop offset="0.84" stop-color="#BF5A00" stop-opacity="0.84"/>
<stop offset="1" stop-color="#BF5A00"/>
</linearGradient>
<linearGradient id="paint2_linear" x1="12012.2" y1="6251.95" x2="12869.2" y2="5244.78" gradientUnits="userSpaceOnUse">
<stop stop-color="#BF5A00" stop-opacity="0.03"/>
<stop offset="0.84" stop-color="#BF5A00" stop-opacity="0.84"/>
<stop offset="1" stop-color="#BF5A00"/>
</linearGradient>
<linearGradient id="paint3_linear" x1="11182.2" y1="14787.8" x2="12828.1" y2="12276.4" gradientUnits="userSpaceOnUse">
<stop stop-color="#BF5A00" stop-opacity="0.03"/>
<stop offset="0.84" stop-color="#BF5A00" stop-opacity="0.84"/>
<stop offset="1" stop-color="#BF5A00"/>
</linearGradient>
</defs>
</svg>
