<svg id="Layer_1" data-name="Layer 1" xmlns="http://www.w3.org/2000/svg" viewBox="0 0 243 243"><defs><style>.cls-1{fill:#3093d5;}.cls-11,.cls-2{fill:#fff;}.cls-2{stroke:#000;stroke-miterlimit:10;}.cls-3{fill:#e9f2f4;}.cls-4{fill:#e2a379;}.cls-5{fill:#c9dee2;}.cls-6{fill:#029897;}.cls-7{fill:#ddebed;}.cls-8{fill:#47200d;}.cls-9{fill:#b74e39;}.cls-10{fill:#aa4034;}.cls-12{fill:#d61f1e;}.cls-13{fill:#e6e7e8;}</style></defs><title>Julia</title><circle class="cls-1" cx="121.5" cy="121.5" r="121.5"/><path class="cls-2" d="M878.5,391.5" transform="translate(-860 -320)"/><path class="cls-3" d="M981.5,563a121,121,0,0,0,72.65-24.1c-.71-6.42-3.41-18.44-4.15-22.9a25,25,0,0,0-4-10c-1-2-6-6-6-6-5-4-43-16-43-16H966s-38,12-43,16c0,0-5,4-6,6a25,25,0,0,0-4,10c-.77,4.63-2.73,17-3.59,23.31A121,121,0,0,0,981.5,563Z" transform="translate(-860 -320)"/><polygon class="cls-4" points="106 139 106 201 136 200 137 140 106 139"/><path class="cls-5" d="M981,539l-15.06-55.13L942,492s1.41,4.32,14,4l-5,7Z" transform="translate(-860 -320)"/><path class="cls-5" d="M981,539l15.57-53.42L1021,492s-1.41,4.32-14,4l5,6Z" transform="translate(-860 -320)"/><path class="cls-6" d="M971.06,502.5s11.06,3.62,20.5.06L981,539Z" transform="translate(-860 -320)"/><polygon class="cls-5" points="136.66 163.94 161 172 136 168 136.66 163.94"/><rect class="cls-5" x="73" y="210" width="28" height="4"/><rect class="cls-7" x="73" y="209" width="28" height="1"/><path class="cls-4" d="M980.49,469s24,0,34-35-33-54-33-54H980s-43,19-33,54,34,35,34,35" transform="translate(-860 -320)"/><path class="cls-8" d="M980,351v30s-30,27-32,50l-6,5s2-4-3-13c0,0-7-11-6-19,0,0,7-32,17-42S980,351,980,351Z" transform="translate(-860 -320)"/><path class="cls-8" d="M980,351v30s30,27,32,50l6,5s-2-4,3-13c0,0,7-11,6-19,0,0-7-32-17-42S980,351,980,351Z" transform="translate(-860 -320)"/><path class="cls-9" d="M981,446c-5-2-11,2-11,2h22s-6-4-11-2" transform="translate(-860 -320)"/><path class="cls-10" d="M970,448s5,6,11,6,11-6,11-6Z" transform="translate(-860 -320)"/><path class="cls-11" d="M981.25,377.84s-15.81-.88-32.5,9.66c0,0,1.76-32.5,32.5-32.5" transform="translate(-860 -320)"/><path class="cls-11" d="M981.25,377.84s15.81-.88,32.5,9.66c0,0-1.76-32.5-32.5-32.5" transform="translate(-860 -320)"/><circle class="cls-12" cx="121.25" cy="47.5" r="7.5"/><rect class="cls-13" x="980.12" y="362.62" width="2.25" height="9.75" transform="translate(-867.73 -298.67) rotate(-1.24)"/><rect class="cls-13" x="976.37" y="366.38" width="9.75" height="2.25" transform="matrix(1, -0.02, 0.02, 1, -867.73, -298.67)"/><path class="cls-2" d="M1194.5,390.5" transform="translate(-860 -320)"/></svg>